<svg width="138" height="27" viewBox="0 0 138 27" fill="none" xmlns="http://www.w3.org/2000/svg">
<path d="M9.35182 26.3836H4.20026V13.4042H0.690918V9.17834H4.20012V6.17135C4.20012 2.60806 5.75225 0.0524902 10.8899 0.0524902C11.9765 0.0524902 13.6824 0.273849 13.6824 0.273849V4.19778H11.8906C10.0649 4.19778 9.3521 4.75905 9.3521 6.31077V9.17834H13.6141L13.2345 13.4042H9.35196L9.35182 26.3836ZM21.1722 8.84064C21.0972 8.84064 21.0199 8.84341 20.9435 8.84534C16.1667 8.84534 13.9811 12.4769 13.9811 17.632C13.9811 24.126 16.8161 26.7251 20.9808 26.7251C23.3636 26.7251 24.9292 25.7114 25.8807 23.8198V26.3854H30.7806V9.18014H25.8807V11.8261C25.1037 10.1237 23.4945 8.86081 21.1722 8.84064ZM22.4181 12.9062C24.4244 12.9062 25.6286 14.3206 25.6286 16.7264L25.6332 19.1836C25.6332 20.8051 24.6386 22.7021 22.4181 22.7021C19.0043 22.7021 19.0955 18.9766 19.0955 17.7357C19.0955 13.5618 20.9144 12.9062 22.4181 12.9062ZM32.7594 17.7837C32.7594 15.6929 32.6604 8.85183 41.4791 8.85183C45.019 8.85183 46.4972 9.98944 46.4972 9.98944L45.3092 13.7137C45.3092 13.7137 43.8329 12.8921 41.9093 12.8921C39.4456 12.8921 37.8735 14.3356 37.8735 16.8755L37.8762 18.6966C37.8762 21.1371 39.3931 22.7662 41.9144 22.7662C43.6668 22.7662 45.2819 21.9369 45.2819 21.9369L46.467 25.5833C46.467 25.5833 45.1154 26.7281 41.5038 26.7281C33.107 26.7281 32.7595 20.5903 32.7595 17.7837H32.7594ZM75.2269 8.84534C80.0039 8.84534 82.2239 12.4769 82.2239 17.632C82.2239 24.126 79.3888 26.7251 75.2241 26.7251C72.8413 26.7251 71.0798 25.7116 70.1283 23.8198V26.3854L65.2901 26.3835V0.575626L70.427 0.122822V11.593C71.1684 9.58624 73.605 8.84534 75.2271 8.84534H75.2269ZM73.7868 12.9062C71.7805 12.9062 70.427 14.3206 70.427 16.7264L70.4222 19.1836C70.4192 20.8051 71.3595 22.7021 73.7868 22.7021C77.2006 22.7021 77.1094 18.9766 77.1094 17.7357C77.1094 13.5618 75.2907 12.9062 73.7868 12.9062ZM55.4102 8.85957C49.9922 8.85957 47.1318 11.8451 47.1318 17.1508V18.1366C47.1318 25.0229 51.1487 26.7958 55.9375 26.7958C60.5923 26.7958 62.6992 25.48 62.6992 25.48L61.7379 21.9758C61.7379 21.9758 59.2596 23.0416 56.5534 23.0416C53.748 23.0416 52.5415 22.3189 52.2323 19.5941H63.1099V16.7829C63.1099 11.0276 59.8997 8.85943 55.4101 8.85943L55.4102 8.85957ZM55.5408 12.3684C57.4162 12.3684 58.6315 13.5308 58.5648 16.2264H52.2417C52.3513 13.3893 53.6619 12.3686 55.5408 12.3686V12.3684ZM92.4667 8.83594C86.9028 8.83594 83.9737 12.0049 83.9737 17.6838C83.9737 25.4755 89.0229 26.7298 92.476 26.7298C97.5312 26.7298 100.894 23.9791 100.894 17.7545C100.894 11.2759 97.1129 8.83594 92.4667 8.83594V8.83594ZM92.3967 12.9203C94.8433 12.9203 95.8127 14.7709 95.8127 16.8774V18.6885C95.8127 21.2403 94.4562 22.7163 92.3874 22.7163C90.4526 22.7163 89.0929 21.3356 89.0929 18.6885V16.8774C89.0929 14.0542 90.7109 12.9203 92.3967 12.9203V12.9203ZM111.128 8.83594C105.564 8.83594 102.635 12.0049 102.635 17.6838C102.635 25.4755 107.684 26.7298 111.137 26.7298C116.192 26.7298 119.556 23.9791 119.556 17.7545C119.556 11.2759 115.774 8.83594 111.128 8.83594V8.83594ZM111.058 12.9203C113.505 12.9203 114.474 14.7709 114.474 16.8774V18.6885C114.474 21.2403 113.117 22.7163 111.049 22.7163C109.114 22.7163 107.754 21.3356 107.754 18.6885V16.8774C107.754 14.0542 109.372 12.9203 111.058 12.9203V12.9203ZM121.497 26.3836V0.575626L126.649 0.122822V17.421L131.76 9.17834H137.201L131.869 17.7153L137.406 26.3836H131.95L126.649 17.9668V26.3836H121.497Z" fill="#877E7E"/>
</svg>
