<svg width="112" height="37" viewBox="0 0 112 37" fill="none" xmlns="http://www.w3.org/2000/svg">
<path d="M13.756 0H14.7493C18.1975 0.075763 21.5896 1.47738 24.0258 3.95862C23.1263 4.88671 22.208 5.77693 21.3272 6.70503C19.9591 5.45494 18.31 4.48896 16.5109 4.14802C13.8498 3.5798 10.9825 4.0912 8.75234 5.6254C6.31608 7.23537 4.66692 9.96284 4.31085 12.8797C3.9173 15.7587 4.72314 18.7892 6.57845 21.0242C8.35879 23.2024 11.0762 24.5662 13.8872 24.6609C16.5109 24.8124 19.247 23.9979 21.1585 22.1417C22.6578 20.8348 23.3512 18.846 23.5761 16.9141C20.4651 16.9141 17.3542 16.933 14.2433 16.9141V13.0123H27.3429C28.0175 17.1982 27.043 21.9144 23.8946 24.9071C21.7957 27.0285 18.8909 28.2785 15.9299 28.5248C13.0627 28.8089 10.1017 28.2596 7.55295 26.858C4.49826 25.2101 2.062 22.4258 0.862607 19.1491C-0.261821 16.1375 -0.280562 12.7282 0.768905 9.69766C1.72467 6.93232 3.56123 4.48896 5.92253 2.78429C8.19013 1.09856 10.945 0.170467 13.756 0Z" fill="#877E7E"/>
<path d="M88.9058 0.984985H92.9162V28.0323C91.5856 28.0323 90.2363 28.0513 88.9058 28.0134C88.9245 19.0165 88.9058 10.0008 88.9058 0.984985V0.984985Z" fill="#877E7E"/>
<path d="M36.263 10.3608C38.7367 9.88725 41.4166 10.4176 43.4593 11.9139C45.3146 13.2397 46.6077 15.3232 47.0013 17.5961C47.5073 20.2288 46.8701 23.1078 45.1834 25.1913C43.3656 27.521 40.3859 28.771 37.4811 28.5816C34.8199 28.4301 32.2338 27.0853 30.6596 24.8882C28.8792 22.4638 28.4482 19.1303 29.4227 16.2892C30.3972 13.2397 33.152 10.91 36.263 10.3608V10.3608ZM36.8252 13.9595C35.8132 14.2246 34.8762 14.8118 34.2015 15.6452C32.3837 17.8423 32.4961 21.4221 34.5014 23.4677C35.6445 24.642 37.3687 25.1913 38.9616 24.8693C40.4421 24.6041 41.7352 23.6002 42.4473 22.2744C43.6842 20.0205 43.3281 16.9142 41.4353 15.1527C40.2172 14.0163 38.4369 13.5428 36.8252 13.9595Z" fill="#877E7E"/>
<path d="M56.1262 10.3606C58.956 9.81129 62.0482 10.6068 64.1659 12.6145C67.6141 15.7398 67.9889 21.5925 65.0467 25.1912C63.2663 27.4641 60.3803 28.7142 57.5317 28.5816C54.8144 28.5058 52.1345 27.1421 50.5228 24.8882C48.705 22.4069 48.3114 18.9976 49.3422 16.0996C50.3729 13.1449 53.0715 10.8909 56.1262 10.3606V10.3606ZM56.6884 13.9593C55.6764 14.2245 54.7394 14.8117 54.0648 15.6261C52.2657 17.7854 52.3406 21.3083 54.2709 23.3729C55.4141 24.604 57.1944 25.2102 58.8436 24.8692C60.3053 24.5851 61.6172 23.6002 62.3293 22.2743C63.5474 20.0014 63.1914 16.8951 61.2798 15.1337C60.0617 13.9972 58.2814 13.5426 56.6884 13.9593Z" fill="#877E7E"/>
<path d="M72.976 11.4592C75.1312 10.0955 77.9985 9.71669 80.3223 10.891C81.0532 11.213 81.6529 11.7623 82.2338 12.3116C82.2526 11.8002 82.2338 11.2698 82.2526 10.7395C83.5082 10.7584 84.7638 10.7395 86.0382 10.7584V27.4641C86.0194 29.9833 85.3823 32.6539 83.5832 34.4911C81.6154 36.5178 78.5982 37.1428 75.8808 36.7261C72.976 36.2905 70.4461 34.1502 69.3216 31.4417C70.4461 30.8924 71.6267 30.4568 72.7886 29.9454C73.4446 31.4985 74.7751 32.8244 76.443 33.1274C78.1109 33.4305 80.0412 33.0138 81.1282 31.6122C82.2901 30.1727 82.2901 28.2028 82.2338 26.4413C81.3718 27.2937 80.3785 28.0513 79.1791 28.3354C76.5742 29.0741 73.7069 28.1649 71.7017 26.3845C69.6777 24.6041 68.4783 21.8577 68.5908 19.1302C68.647 16.0429 70.3711 13.0692 72.976 11.4592V11.4592ZM76.8553 13.8836C75.7122 14.0731 74.6439 14.717 73.9131 15.6073C72.1515 17.7286 72.1515 21.119 73.9318 23.2025C74.9438 24.4336 76.5742 25.1155 78.1484 24.945C79.6289 24.7935 80.997 23.8465 81.7279 22.5396C82.9647 20.3235 82.7586 17.3119 81.0907 15.38C80.06 14.1867 78.4108 13.5995 76.8553 13.8836V13.8836Z" fill="#877E7E"/>
<path d="M97.7296 12.4252C99.9785 10.3038 103.445 9.58409 106.332 10.7016C109.068 11.7433 110.81 14.3761 111.691 17.0846C107.625 18.7893 103.577 20.475 99.51 22.1797C100.072 23.2593 100.934 24.2442 102.096 24.642C103.727 25.2291 105.676 25.0208 107.044 23.9222C107.587 23.5055 108.018 22.9562 108.43 22.4259C109.461 23.1267 110.492 23.8086 111.523 24.5094C110.061 26.7255 107.606 28.2786 104.963 28.5248C102.04 28.8847 98.929 27.7483 97.0362 25.4375C93.9253 21.8009 94.2252 15.7019 97.7296 12.4252V12.4252ZM99.7349 15.9292C99.0977 16.8573 98.8353 17.9938 98.8541 19.1113C101.571 17.9748 104.289 16.8384 107.006 15.683C106.556 14.6223 105.469 13.9783 104.364 13.8079C102.583 13.4859 100.728 14.4519 99.7349 15.9292V15.9292Z" fill="#877E7E"/>
</svg>
