<svg width="180" height="36" viewBox="0 0 180 36" fill="none" xmlns="http://www.w3.org/2000/svg">
<path d="M4.43961 24.2001C-4.78052 15.5813 1.31836 0.125793 13.9395 0.125793H33.1048L4.43961 24.2001V24.2001Z" fill="#100A0A"/>
<path d="M28.6654 11.3862C37.8855 20.005 31.7866 35.4605 19.1655 35.4605H0.000167832L28.6654 11.3862V11.3862Z" fill="#100A0A"/>
<path d="M68.44 23.0731C68.44 19.6491 66.232 17.9211 62.296 17.1211L58.904 16.4491C56.76 16.0011 54.872 15.2651 54.872 13.0571C54.872 11.0731 56.504 9.31309 59.48 9.31309C62.36 9.31309 64.344 11.2331 64.536 13.9851H68.12C67.832 9.40909 64.216 6.49709 59.448 6.49709C54.68 6.49709 51.288 9.40909 51.288 13.2811C51.288 17.1851 54.232 18.7851 57.464 19.4571L60.792 20.0971C63.448 20.6731 64.696 21.6011 64.696 23.5531C64.696 25.9211 62.52 27.2971 59.608 27.2971C56.088 27.2971 54.232 25.4091 54.072 22.4971H50.488C50.776 27.0731 54.136 30.1131 59.672 30.1131C65.24 30.1131 68.44 27.0731 68.44 23.0731ZM81.8248 29.5051V26.6571C81.1528 26.9771 80.5128 27.1051 79.7448 27.1051C77.9848 27.1051 76.8648 26.2731 76.8648 23.9371V15.5851H81.9848V12.8331H76.8648V7.80909H73.6328V12.8331H69.9208V15.5851H73.6328V24.6731C73.6328 28.4171 75.8088 30.1131 78.9448 30.1131C80.0008 30.1131 80.8648 29.9531 81.8248 29.5051ZM95.883 29.7931H98.891V12.8331H95.659V22.8171C95.659 25.4731 93.963 27.2651 91.755 27.2651C89.707 27.2651 88.235 26.0491 88.235 23.1051V12.8331H85.003V23.7451C85.003 28.0971 87.371 30.1131 90.795 30.1131C93.099 30.1131 94.987 28.8331 95.883 27.0411V29.7931ZM115.418 29.7931H118.394V6.81709H115.194V15.7451C113.978 13.6651 112.026 12.5131 109.722 12.5131C105.146 12.5131 102.202 16.1611 102.202 21.3131C102.202 26.4011 105.146 30.1131 109.722 30.1131C112.154 30.1131 114.17 28.8971 115.418 26.7531V29.7931ZM105.53 21.3131C105.53 17.4731 107.578 15.3611 110.362 15.3611C113.082 15.3611 115.13 17.4411 115.194 21.2491C115.258 24.9931 113.146 27.2331 110.362 27.2331C107.578 27.2331 105.53 25.0891 105.53 21.3131ZM126.79 8.89709C126.79 7.64909 125.83 6.75309 124.454 6.75309C123.078 6.75309 122.086 7.64909 122.086 8.89709C122.086 10.1131 123.078 11.0411 124.454 11.0411C125.83 11.0411 126.79 10.1131 126.79 8.89709ZM126.086 29.7931V12.8331H122.854V29.7931H126.086ZM146.218 21.3131C146.218 16.2891 142.666 12.5131 137.866 12.5131C133.098 12.5131 129.546 16.2891 129.546 21.3131C129.546 26.3371 133.098 30.1131 137.866 30.1131C142.666 30.1131 146.218 26.3371 146.218 21.3131ZM132.874 21.3131C132.874 17.6011 135.082 15.3931 137.866 15.3931C140.682 15.3931 142.858 17.6011 142.858 21.3131C142.858 25.0251 140.682 27.2651 137.866 27.2651C135.082 27.2651 132.874 24.9931 132.874 21.3131ZM160.999 29.7931L166.727 20.6411L172.551 29.7931H176.839L169.383 18.1451L176.455 6.81709H172.391L166.983 15.4571L161.639 6.81709H157.255L164.327 18.0171L156.743 29.7931H160.999Z" fill="#100A0A"/>
</svg>
