<svg width="142" height="35" viewBox="0 0 142 35" fill="none" xmlns="http://www.w3.org/2000/svg">
<path d="M15.4543 0.38376C13.6277 0.590649 10.8879 1.45003 9.32898 2.30942C5.14045 4.5852 2.30611 8.13414 0.888941 12.8607C0.605507 13.7838 0.274834 16.2983 0.290581 17.476C0.290581 18.5104 0.605507 21.0408 0.794463 21.6456C0.888942 21.932 1.09364 22.6164 1.26685 23.1415C1.55029 24.0327 2.92022 26.8337 3.15641 27.0247C3.20365 27.0724 3.45559 27.3907 3.69179 27.7567C4.2744 28.632 5.8018 30.1917 6.95128 31.0829C7.83308 31.7672 10.321 33.2154 10.6359 33.2313C10.7147 33.2313 10.7304 32.6266 10.6832 31.8309C10.5729 30.0644 10.9036 27.6613 11.6122 25.2104C11.7382 24.7966 11.8326 24.2556 11.8326 24.0168C11.8326 23.7781 11.8956 23.5235 11.9744 23.4439C12.0531 23.3484 12.1948 22.8869 12.2735 22.4095C12.368 21.932 12.5255 21.2 12.6357 20.7862C12.7932 20.1655 12.7774 19.9268 12.557 19.2584C12.2421 18.2399 12.2263 16.5847 12.5412 15.789C13.2813 13.8952 14.1001 13.179 15.4858 13.179C17.1549 13.179 17.958 14.4522 17.643 16.5847C17.5013 17.5555 17.1077 19.0833 16.8557 19.5608C16.7927 19.704 16.6825 20.1019 16.6353 20.4361C16.5723 20.7862 16.4463 21.2795 16.3676 21.5501C16.1471 22.1708 16.5723 23.3803 17.1392 23.8418C17.6745 24.2715 18.7925 24.3988 19.816 24.1601C20.5404 24.0009 20.8396 23.8099 21.5954 23.0779C22.4929 22.1867 23.17 21.1522 23.17 20.6589C23.17 20.5156 23.2487 20.3247 23.3432 20.2292C23.7841 19.7836 24.0203 16.3142 23.6896 14.8501C23.3275 13.2427 22.2095 11.6672 20.7608 10.7441C19.3122 9.80516 16.3204 9.53461 14.478 10.1712C13.1868 10.6168 12.0373 11.3648 11.2973 12.2401C10.6359 13.0199 9.94309 14.2931 9.94309 14.7387C9.94309 14.8978 9.86436 15.1047 9.76988 15.2002C9.6754 15.2957 9.56518 15.9004 9.51794 16.5529C9.4392 17.5237 9.50219 17.9693 9.78562 18.9242C9.97458 19.5767 10.321 20.3406 10.5257 20.627C10.9509 21.2 10.9509 21.4228 10.5572 22.9506C10.447 23.3643 10.258 23.7463 10.1478 23.794C9.15577 24.176 7.14024 21.7729 6.46315 19.3857C6.2112 18.4786 6.19546 15.2479 6.4474 14.2931C6.55762 13.8952 6.74658 13.3541 6.87255 13.0676C6.99852 12.7971 7.10875 12.5265 7.10875 12.4629C7.10875 12.3992 7.42367 11.8581 7.81733 11.2693C9.86436 8.15005 13.1868 6.49494 17.3911 6.49494C18.3516 6.49494 19.3437 6.5586 19.6113 6.63817C21.7843 7.32249 22.3669 7.5453 23.2173 8.05456C24.8706 9.05718 26.0673 10.4258 27.2641 12.7175C27.3428 12.8607 27.453 13.2427 27.5003 13.561C27.5632 13.8793 27.6735 14.1817 27.7522 14.2294C27.8309 14.2771 27.8939 15.3116 27.8939 16.537C27.8939 18.7491 27.7365 19.6403 27.0751 21.4546C26.335 23.4439 24.4297 25.6401 22.6976 26.4995C21.7056 26.9769 19.8475 27.5021 19.1075 27.5021C18.1154 27.5021 16.1629 26.6746 15.6275 26.0062C15.3756 25.7038 15.1394 25.8152 15.1394 26.2449C15.1394 26.404 15.0764 26.6746 14.9819 26.8337C14.9032 26.9769 14.7615 27.4225 14.6827 27.8204C14.2261 29.9211 13.5805 31.624 12.5885 33.2154C12.2893 33.7088 12.5412 33.9952 13.36 34.1066C13.7694 34.1703 14.3206 34.2817 14.5725 34.3613C15.2024 34.5682 18.6193 34.5363 19.7688 34.3294C20.8081 34.1385 22.4929 33.661 23.2487 33.3427C28.0041 31.3693 31.6101 27.3589 33.1689 22.2503C34.0035 19.5289 34.0507 16.3619 33.2949 13.179C33.043 12.1446 32.9642 11.9059 32.2871 10.3144C31.3109 7.9909 29.1064 5.26952 26.8704 3.59849C24.9493 2.16619 23.0598 1.33863 20.1152 0.622478C19.2964 0.431504 16.3833 0.272359 15.4543 0.38376ZM57.4498 6.12891C56.8357 6.22439 55.8594 7.24292 55.6075 8.03865C55.3398 8.91395 55.6075 9.8529 56.3633 10.585C58.0324 12.2242 60.9297 10.6805 60.5676 8.32511C60.3471 6.82914 58.9929 5.87427 57.4498 6.12891ZM40.2863 7.06786C40.1446 7.22701 40.1446 26.4199 40.302 26.6427C40.3808 26.77 41.0579 26.8178 42.3805 26.8019L44.3488 26.786L44.4276 23.5553C44.4906 20.9294 44.5535 20.2928 44.7425 20.1814C44.8685 20.1019 45.9392 20.0223 47.1202 20.0223C49.7026 20.0223 50.7891 19.8313 51.9701 19.1947C53.5132 18.3513 54.4108 17.1418 54.8989 15.2161C55.1981 14.0066 55.1981 13.1313 54.8831 11.89C54.5997 10.7759 54.4737 10.5054 53.7966 9.59827C52.9621 8.46834 52.1118 7.84767 50.7261 7.35432C49.9545 7.09969 49.3089 7.05195 45.1362 7.0042C42.538 6.97238 40.3493 7.0042 40.2863 7.06786ZM48.931 11.0306C49.986 11.3648 50.5057 11.8422 50.7419 12.7016C51.041 13.8315 50.8206 14.8819 50.1592 15.5185C49.4349 16.2028 48.7893 16.3619 46.6793 16.3619C45.2936 16.3619 44.8685 16.3142 44.6795 16.1073C44.4748 15.9163 44.4276 15.4548 44.4276 13.6406C44.4276 10.7759 44.4118 10.7919 46.6006 10.7919C47.5453 10.7919 48.4586 10.8873 48.931 11.0306ZM76.5501 10.0916C76.5501 11.1897 76.4714 12.2242 76.3926 12.3992C76.2824 12.6061 76.062 12.7016 75.6841 12.7016C75.4006 12.7016 75.1329 12.7653 75.1014 12.8607C75.0857 12.9403 75.0857 13.4973 75.1329 14.0862C75.2117 15.1365 75.2274 15.1524 75.6998 15.2638C75.9675 15.3116 76.2667 15.4071 76.3611 15.4707C76.5029 15.5503 76.5501 16.8076 76.5501 19.9905C76.5501 24.2715 76.5658 24.4306 76.9123 25.0672C77.6366 26.4199 78.7703 26.8974 81.0693 26.8337L82.6124 26.786L82.6597 25.2423L82.7069 23.6826H82.3133C81.7149 23.6826 80.8331 23.2052 80.7386 22.8232C80.6914 22.6323 80.6442 20.9453 80.6442 19.0515C80.6442 16.4415 80.6914 15.5662 80.8489 15.4389C80.9591 15.3434 81.4 15.2479 81.8251 15.2161L82.6124 15.1684V12.7812L81.7464 12.7334C81.274 12.7016 80.8331 12.5902 80.7701 12.4947C80.7071 12.3833 80.6442 11.3489 80.6442 10.1871V8.08639H76.5501V10.0916ZM135.079 8.18188C135.016 8.24554 134.969 9.24815 134.969 10.4099C134.969 12.6698 134.953 12.7016 134.087 12.7016C133.694 12.7016 133.694 12.7175 133.741 13.927C133.788 15.1365 133.804 15.1684 134.213 15.2161C134.434 15.2479 134.701 15.3593 134.78 15.4548C134.875 15.5662 134.969 17.4919 135.016 19.9427C135.064 22.2981 135.142 24.4465 135.205 24.7012C135.394 25.4014 136.37 26.2926 137.299 26.595C138.339 26.9451 140.984 26.9769 141.252 26.6427C141.378 26.4995 141.425 25.9266 141.394 25.099L141.346 23.7622L140.795 23.6667C140.197 23.5712 139.52 23.2529 139.347 22.9824C139.284 22.8869 139.221 21.1522 139.221 19.1311C139.221 14.9774 139.126 15.2479 140.496 15.2479C141.394 15.2479 141.472 15.0888 141.394 13.6406L141.346 12.7812L140.323 12.7016L139.299 12.622L139.221 10.394L139.142 8.16596L137.158 8.11822C136.071 8.10231 135.142 8.13414 135.079 8.18188ZM68.7557 12.3197C67.9841 12.5265 67.0866 13.0517 66.4882 13.6724C65.7639 14.4363 65.5749 14.3885 65.4962 13.4178L65.4489 12.7812H61.5123V26.786L63.4964 26.8178C65.4489 26.8655 65.4962 26.8496 65.5906 26.4995C65.6379 26.3085 65.6851 24.2874 65.6851 21.9957C65.6851 17.46 65.7009 17.3327 66.6299 16.4415C67.0393 16.0437 67.2598 15.9641 68.1416 15.9163L69.1651 15.8527L69.7792 16.5052C70.5035 17.2691 70.4248 16.537 70.4878 23.1256C70.5035 24.8762 70.5193 26.4199 70.535 26.5791C70.5665 26.8019 70.8184 26.8337 72.582 26.8019L74.5818 26.786V15.614L74.1252 14.7068C73.3378 13.1313 72.1254 12.3833 70.2673 12.2878C69.606 12.2719 68.9289 12.2719 68.7557 12.3197ZM88.4386 12.3197C86.738 12.7812 85.9192 13.2427 84.8642 14.2931C83.447 15.7413 82.8014 17.4282 82.8014 19.704C82.8172 23.6985 85.2893 26.6586 88.9425 27.0088C92.0603 27.3111 94.4694 26.3881 96.0126 24.3033C96.233 24.0009 96.7054 23.0301 96.7054 22.8551C96.7054 22.7914 95.7921 22.7278 94.6899 22.7278H92.6744L92.202 23.2211C91.6509 23.794 90.8793 24.1601 90.1707 24.1601C89.4621 24.1601 88.3756 23.6508 87.8717 23.1097C87.4938 22.68 86.9427 21.4387 86.9427 21.009C86.9427 20.8658 88.0922 20.818 91.7926 20.818C94.4537 20.818 96.7054 20.7544 96.8157 20.6907C97.0518 20.5316 96.8314 18.0011 96.485 17.0781C95.7764 15.1524 94.438 13.5292 93.0838 12.9562C92.6901 12.7971 92.2335 12.5902 92.076 12.5106C91.7453 12.3356 88.9425 12.1923 88.4386 12.3197ZM91.5091 15.8049C92.1232 16.2346 92.6586 17.2532 92.5799 17.8261C92.5326 18.1921 92.5012 18.1921 89.84 18.2399C86.7695 18.2876 86.7537 18.2717 87.2419 17.1258C87.5883 16.3301 88.2811 15.614 88.9267 15.4071C89.6668 15.1684 90.8635 15.3593 91.5091 15.8049ZM111.743 12.3197C109.917 12.813 108.641 13.6246 107.649 14.8819C107.255 15.3912 106.941 15.8686 106.941 15.9641C106.941 16.0437 106.83 16.3301 106.689 16.6007C106.547 16.8553 106.342 17.651 106.232 18.3672C105.681 21.7729 107.192 24.9558 110.027 26.3881L111.113 26.9451H113.397C115.758 26.9451 115.963 26.8974 117.412 26.1176C118.467 25.5446 120.199 23.3166 119.931 22.871C119.868 22.7914 118.971 22.7278 117.916 22.7278H115.979L115.585 23.1893C114.011 24.9876 111.066 24.0646 110.436 21.566C110.342 21.2318 110.342 20.9453 110.42 20.8817C110.499 20.8339 112.751 20.8021 115.444 20.818C119.286 20.818 120.325 20.7862 120.341 20.627C120.482 18.6377 119.538 15.6935 118.357 14.4204C117.695 13.7042 116.546 12.9085 115.979 12.7653C115.727 12.7016 115.444 12.5902 115.333 12.5106C115.113 12.3356 112.231 12.1923 111.743 12.3197ZM114.2 15.423C114.908 15.6776 115.727 16.5688 115.853 17.2532C116.042 18.2876 116.058 18.2876 113.129 18.2399C110.499 18.1921 110.483 18.1921 110.436 17.8261C110.373 17.3805 110.924 16.2824 111.397 15.8686C112.074 15.2957 113.255 15.1047 114.2 15.423ZM125.442 12.3197C122.214 13.0995 121.049 14.2612 121.034 16.6802C121.034 19.2902 122.325 20.3883 126.151 21.0726C128.781 21.5342 129.537 21.9479 129.505 22.9506C129.489 23.6667 129.001 24.1282 128.025 24.3351C126.797 24.6057 125.836 24.3033 125.065 23.428L124.45 22.7278H122.545C121.002 22.7278 120.64 22.7755 120.64 22.9506C120.64 23.4121 121.27 24.6216 121.789 25.2263C122.277 25.7515 122.655 26.0062 124.136 26.7223C124.277 26.8019 125.049 26.9292 125.82 27.0247C127.253 27.1997 129.741 27.0406 130.371 26.7223C130.513 26.6586 130.922 26.4518 131.269 26.2926C132.166 25.8629 133.016 24.8921 133.331 23.9691C133.678 22.9187 133.583 21.4546 133.095 20.4361C132.513 19.2425 130.969 18.3831 128.67 17.9693C125.71 17.4441 125.663 17.4282 125.191 16.9667C124.624 16.3779 124.624 16.171 125.191 15.5344C125.647 15.0251 125.679 15.0092 126.938 15.0092C128.198 15.0092 128.23 15.0251 128.686 15.5344C128.938 15.8209 129.143 16.1551 129.143 16.2824C129.143 16.4733 129.474 16.5211 131.111 16.5211C133.284 16.5211 133.221 16.5688 132.843 15.4389C132.15 13.4337 130.371 12.4151 127.411 12.3037C126.497 12.2719 125.616 12.2719 125.442 12.3197ZM104.5 12.6539C103.807 12.8926 102.846 13.6883 102.547 14.2612C102.248 14.8342 101.98 14.5954 101.902 13.6406L101.823 12.7812H97.8864L97.8392 19.4653C97.8234 23.1415 97.8392 26.3085 97.8864 26.5154C97.9651 26.8655 98.0124 26.8655 99.9019 26.8337C100.988 26.8178 101.87 26.7223 101.933 26.6268C101.996 26.5472 102.059 24.8603 102.059 22.8869C102.059 19.7677 102.091 19.2106 102.358 18.5104C102.909 17.0622 104.09 16.2028 105.571 16.2028C105.98 16.2028 106.153 16.1232 106.2 15.9163C106.311 15.4548 106.326 13.3064 106.232 12.8289C106.137 12.447 106.059 12.3833 105.634 12.3992C105.35 12.4151 104.846 12.5265 104.5 12.6539ZM56.0011 12.8926C55.9539 13.004 55.9381 16.1391 55.9539 19.8631L56.0011 26.6268L57.8749 26.7064C59.0087 26.7541 59.8275 26.7223 59.9535 26.6268C60.1267 26.4995 60.1739 25.1468 60.1739 19.7358C60.1897 16.0437 60.1424 12.9403 60.0952 12.8607C59.9377 12.622 56.0799 12.6539 56.0011 12.8926Z" fill="#877E7E"/>
</svg>
