<svg width="109" height="37" viewBox="0 0 109 37" fill="none" xmlns="http://www.w3.org/2000/svg">
<path d="M104.026 7.01769H99.2729V0.363892H88.8369L84.0376 7.01769H75.5094L72.6577 9.86932V7.01769H66.0039V0.363892H45.092V7.01769H15.6727L10.8725 0.363892H0.416504V23.1769L13.7241 36.4845H27.0317V32.6823L30.8339 36.4845H56.4985V32.6823L60.3007 36.4845H72.6577V32.6823L76.4599 36.4845H100.223L108.778 27.9296V11.7704L104.026 7.01769ZM16.5757 16.5231H9.92193V18.4242H16.5757V26.0285H6.11976L2.31759 22.2264V2.26498H9.92193V8.91877H16.5757V16.5231ZM45.092 26.0285H22.279L18.4768 22.2264V8.91877H26.0812V18.4242H27.9822V8.91877H35.5866V18.4242H37.4877V8.91877H45.092V26.0285ZM54.5974 26.0285H46.9931V8.91877H54.5974V26.0285ZM54.5974 7.01769H46.9931V2.26498H54.5974V7.01769ZM70.7567 16.5231H64.1029V18.4242H70.7567V26.0285H60.3007L56.4985 22.2264V2.26498H64.1029V8.91877H70.7567V16.5231ZM87.8664 16.5231H80.2621V18.4242H87.8664V26.0285H76.4599L72.6577 22.2264V12.7209L76.4599 8.91877H87.8664V16.5231ZM106.877 26.0285H99.2729V16.5231H97.3718V26.0285H89.7675V2.26498H97.3718V8.91877H103.075L106.877 12.7209V26.0285Z" fill="#877E7E"/>
</svg>
