<svg width="136" height="35" viewBox="0 0 136 35" fill="none" xmlns="http://www.w3.org/2000/svg">
<path d="M44.3228 13.7288C44.3228 11.3096 41.9704 8.74033 37.8996 8.74033C33.3282 8.74033 28.3064 12.0938 27.539 18.7839C26.7548 25.5408 30.9591 28.5439 35.1968 28.5439C39.4345 28.5439 41.6534 26.8922 43.9224 24.6899C41.9704 22.2374 39.4511 23.3719 38.9673 23.6222C38.4334 23.8891 37.7494 24.2562 36.348 24.2562C34.713 24.2562 33.0446 23.5221 33.0446 20.469C43.522 19.4346 44.3228 16.1479 44.3228 13.7288ZM39.1342 14.1292C39.0674 14.8799 38.7671 16.1646 33.4617 16.882C34.5795 12.9113 36.715 12.6109 37.6994 12.6109C38.617 12.6109 39.2009 13.3283 39.1342 14.1292ZM21.3827 14.7798C21.3827 14.7798 19.1304 21.8537 18.9469 22.4376C18.8801 21.837 17.2285 9.14074 17.2285 9.14074C13.3912 9.14074 11.3391 11.8769 10.2547 14.7631C10.2547 14.7631 7.51854 21.8537 7.28497 22.4543C7.26828 21.9038 6.86787 14.8466 6.86787 14.8466C6.6343 11.3096 3.39766 9.15742 0.77832 9.15742L3.94822 28.3937C7.969 28.377 10.1379 25.6576 11.2724 22.7713C11.2724 22.7713 13.6915 16.5149 13.7916 16.2313C13.8083 16.4983 15.5267 28.3937 15.5267 28.3937C19.5642 28.3937 21.7331 25.8411 22.9009 23.0549L28.5567 9.15742C24.5693 9.15742 22.4671 11.8769 21.3827 14.7798ZM59.1379 8.70696C56.652 8.70696 54.7501 10.0583 53.1485 12.0437V12.027L54.5833 0.46521C51.2799 0.46521 48.5938 3.33481 48.0766 7.60584L45.5741 28.2436C47.476 28.2436 49.4947 27.693 50.5792 26.2916C51.5468 27.5429 52.9983 28.5439 55.1505 28.5439C60.7229 28.5439 64.5434 22.0706 64.5434 15.9977C64.5101 10.4587 61.824 8.70696 59.1379 8.70696ZM58.6207 18.6338C58.0368 22.0206 56.1515 24.3229 54.333 24.3229C52.4978 24.3229 51.7137 23.5054 51.7137 23.5054C52.064 20.5357 52.2809 18.7172 52.9483 17.1489C53.6156 15.5806 55.2006 13.0781 56.8523 13.0781C58.4706 13.0781 59.2047 15.2303 58.6207 18.6338ZM78.4577 9.15742H74.5703L74.587 8.95722C74.854 6.42129 75.4546 5.0866 77.4399 4.86971C78.7913 4.73624 79.3919 4.03552 79.5421 3.26807C79.6589 2.66746 80.0259 0.581996 80.0259 0.581996C72.2179 0.531945 69.7654 3.90205 69.1315 9.04063L69.1148 9.15742H69.0314C67.7634 9.15742 66.362 10.5922 66.1284 12.4107L66.045 13.0781H68.6476L66.4621 31.1299L65.7947 34.3665C65.8781 34.3665 65.9782 34.3832 66.0617 34.3832C69.7154 34.2497 72.0511 31.3634 72.5683 27.1758L74.27 13.0781H75.4879C76.6892 13.0781 78.0906 11.8769 78.3409 9.87482L78.4577 9.15742ZM98.6783 8.82375C94.1904 8.82375 89.9527 12.1271 88.6514 17.3158C87.3501 22.5044 89.3187 28.644 95.9255 28.644C102.516 28.644 106.319 22.2541 106.319 16.932C106.319 11.6433 102.732 8.82375 98.6783 8.82375ZM100.497 18.4669C100.263 20.8193 99.2289 24.3896 96.3926 24.3896C93.5397 24.3896 93.9401 20.2187 94.2237 18.2334C94.5241 16.1145 95.7086 13.0948 98.2612 13.0948C100.547 13.0948 100.764 15.8142 100.497 18.4669ZM128.492 14.7798C128.492 14.7798 126.24 21.8537 126.056 22.4376C125.99 21.837 124.338 9.14074 124.338 9.14074C120.501 9.14074 118.448 11.8769 117.364 14.7631C117.364 14.7631 114.628 21.8537 114.394 22.4543C114.378 21.9038 113.977 14.8466 113.977 14.8466C113.744 11.3096 110.507 9.15742 107.888 9.15742L111.041 28.3937C115.062 28.377 117.231 25.6576 118.365 22.7713C118.365 22.7713 120.784 16.5149 120.868 16.2313C120.901 16.4983 122.603 28.3937 122.603 28.3937C126.64 28.3937 128.809 25.8411 129.977 23.0549L135.633 9.15742C131.662 9.15742 129.56 11.8769 128.492 14.7798ZM82.1281 0.581996L78.8581 26.9589L78.1907 30.2123C78.2741 30.2123 78.3742 30.2289 78.4577 30.2289C81.9779 30.1789 84.4805 27.0924 84.9476 23.2051L86.8329 8.07298C87.4001 3.45159 84.6473 0.581996 82.1281 0.581996Z" fill="#877E7E"/>
</svg>
