<svg width="127" height="29" viewBox="0 0 127 29" fill="none" xmlns="http://www.w3.org/2000/svg">
<path d="M21.4016 28.4437L13.1523 28.2912C10.4813 28.2381 7.80371 28.3442 5.18521 27.7937C1.20166 26.9712 0.919467 22.9385 0.624147 19.5558C0.217261 14.8001 0.374765 9.95823 1.1426 5.24235C1.57573 2.59588 3.28203 1.01729 5.92023 0.844834C14.8258 0.221355 23.7904 0.294315 32.6763 0.586156C33.6147 0.612687 34.5597 0.758608 35.4851 0.924427C40.0527 1.73362 40.1643 6.30359 40.4596 10.1506C40.7549 14.0374 40.6302 17.9441 40.0658 21.8043C39.613 25.0013 38.7467 27.6809 35.0913 27.9396C30.5106 28.2779 26.0348 28.5498 21.441 28.4636C21.441 28.4437 21.4147 28.4437 21.4016 28.4437V28.4437ZM16.5518 20.3518C20.0037 18.3487 23.3901 16.3787 26.8223 14.3889C23.3638 12.3858 19.984 10.4159 16.5518 8.42607V20.3518Z" fill="#877E7E"/>
<path d="M106.627 24.8091C106.47 25.4591 106.332 25.9698 106.194 26.5137H102.965V1.34216H106.732V10.6281C106.929 10.3761 107.027 10.2699 107.113 10.1572C107.756 9.26175 108.589 8.67806 109.666 8.45254C111.378 8.11427 112.842 8.87704 113.36 10.5419C113.695 11.5766 113.912 12.6843 113.938 13.7654C113.99 16.5446 113.951 19.3171 113.852 22.0963C113.813 22.9453 113.557 23.8142 113.236 24.6101C112.179 27.2367 108.727 27.6347 107.014 25.3596C106.909 25.2203 106.811 25.0678 106.627 24.8091V24.8091ZM106.811 17.8844V22.4876C106.811 23.2371 107.205 23.6948 107.946 23.8672C108.675 24.0397 109.265 23.7545 109.561 23.0713C109.685 22.7861 109.81 22.4876 109.816 22.1891C109.889 19.3768 109.954 16.5645 109.974 13.7455C109.974 13.2215 109.849 12.6776 109.692 12.1669C109.396 11.245 108.583 10.973 107.782 11.5103C107.178 11.9215 106.811 12.5052 106.811 13.2812V17.8844ZM96.573 8.81072H100.517V26.527H97.4393C97.3277 25.8571 97.2161 25.1672 97.0849 24.358C96.8749 24.6698 96.7502 24.8688 96.6189 25.0678C95.5952 26.5601 94.1448 27.0709 92.432 26.7989C90.9685 26.5601 90.0891 25.4193 89.8922 23.5488C89.8331 22.9917 89.8069 22.4279 89.8069 21.8707C89.7938 17.7252 89.8069 13.5664 89.8069 9.42094V8.79745H93.797V9.52043C93.797 13.5267 93.7839 17.5262 93.8101 21.5325C93.8101 22.1029 93.8692 22.6932 93.9676 23.2636C94.0792 23.8473 94.4992 24.0596 95.0636 24.0198C95.9758 23.9468 96.6058 23.2636 96.6058 22.3483V9.59339C96.573 9.33471 96.573 9.09593 96.573 8.81072V8.81072ZM69.4167 8.79745H73.3805V9.54696C73.3805 13.5333 73.3674 17.513 73.3937 21.486C73.3937 22.0565 73.4462 22.6468 73.5643 23.2039C73.7152 23.8606 74.0959 24.0728 74.7456 23.9866C75.6447 23.8606 76.1894 23.2305 76.1959 22.3085V9.61992V8.82398H80.1401V26.527H77.0753C76.9638 25.8703 76.8522 25.1938 76.7078 24.3381C76.5109 24.6366 76.3994 24.8091 76.2878 24.9882C75.264 26.5071 73.8268 27.0642 72.0746 26.7923C70.6702 26.58 69.8105 25.5321 69.5479 23.8142C69.4758 23.2769 69.4233 22.7463 69.4233 22.209C69.4101 17.9043 69.4101 13.5797 69.4101 9.27501L69.4167 8.79745ZM67.3823 18.2559C67.3691 18.8528 67.3298 19.4498 67.2969 20.0467C67.146 21.8376 67.0738 24.3779 65.6432 25.6846C64.7309 26.5071 63.5759 26.8056 62.3815 26.8453C61.8499 26.8586 61.3118 26.8586 60.7802 26.7857C58.2667 26.4009 57.0986 25.28 56.6786 22.4876C56.1995 19.264 56.1601 15.9874 56.7311 12.7639C57.3217 9.42757 59.3561 8.24693 62.5193 8.46581C65.4725 8.67806 66.7916 10.6347 67.1394 13.4205C67.3298 15.019 67.4216 16.6374 67.3823 18.2559V18.2559ZM63.3659 17.6456C63.3659 16.5114 63.3922 15.3706 63.3528 14.2364C63.3265 13.5797 63.2412 12.9164 63.1034 12.2664C62.9459 11.5169 62.4734 11.1587 61.8827 11.172C61.3052 11.1853 60.8983 11.5434 60.6883 12.2399C60.6162 12.4986 60.5374 12.7639 60.5374 13.0226C60.5374 14.8002 60.5243 16.5844 60.5111 18.362C60.498 20.0202 60.288 21.758 60.8065 23.3432C60.964 23.8274 61.3709 24.0927 61.9024 24.0927C62.4209 24.0927 62.7621 23.834 62.9525 23.3698C63.1034 23.0116 63.2347 22.6202 63.2347 22.2355C63.2806 20.71 63.3659 19.1778 63.3659 17.6456ZM50.8903 14.3093C51.2381 12.5914 51.5662 10.9133 51.9272 9.22858C52.38 7.08618 52.8853 4.94378 53.3316 2.79475C53.4432 2.27076 53.6532 2.14473 54.1454 2.158C55.202 2.1978 56.2782 2.17127 57.407 2.17127C57.0395 3.53763 56.6786 4.83766 56.3242 6.11779C55.202 10.1373 54.0797 14.17 52.9706 18.2028C52.8853 18.5145 52.846 18.8528 52.846 19.1844C52.8328 21.3865 52.846 23.582 52.846 25.7841V26.5004H48.9937C48.9805 26.3015 48.9543 26.1025 48.9543 25.9035C48.9543 24.6565 48.8559 23.4029 48.9674 22.1692C49.2496 19.2043 48.3177 16.4783 47.563 13.719C46.5655 10.071 45.5548 6.40964 44.5573 2.76159C44.5048 2.58913 44.4851 2.40341 44.4326 2.19116H48.3637C49.1906 6.21728 50.024 10.2434 50.8903 14.3093ZM126.262 18.9324H119.621C119.693 20.2789 119.72 21.559 119.857 22.8259C119.956 23.708 120.435 24.0861 121.19 24.0927C121.977 24.106 122.436 23.708 122.62 22.8325C122.679 22.5473 122.719 22.2621 122.745 21.9702C122.771 21.7115 122.784 21.433 122.804 21.0615C123.926 21.1212 125.022 21.1876 126.105 21.234C126.735 23.1243 125.6 25.5519 123.69 26.3015C122.187 26.8984 120.645 26.8984 119.109 26.4407C117.974 26.1025 117.127 25.3729 116.747 24.2519C116.392 23.2039 116.058 22.1095 115.985 21.0151C115.788 18.3155 115.716 15.5895 116.123 12.8833C116.195 12.4322 116.32 12.0011 116.458 11.5633C117.009 9.75921 118.21 8.65153 120.067 8.46581C121.078 8.36632 122.121 8.40611 123.119 8.57857C124.733 8.86378 125.593 10.0378 125.967 11.5766C126.138 12.2996 126.263 13.0425 126.289 13.7787C126.295 15.4701 126.262 17.1482 126.262 18.9324ZM122.489 16.6043C122.489 15.2711 122.502 14.0175 122.476 12.7572C122.476 12.4588 122.364 12.147 122.253 11.8618C122.03 11.3047 121.564 11.1521 121.006 11.1521C120.448 11.1521 120.094 11.4373 119.956 11.948C119.536 13.4802 119.674 15.0456 119.687 16.6175C120.691 16.6043 121.603 16.6043 122.489 16.6043V16.6043Z" fill="#877E7E"/>
<path d="M83.1846 5.42163H79.2798V2.22461H90.935V5.40173H87.0565V26.5008H83.1911L83.1846 5.42163Z" fill="#877E7E"/>
</svg>
