<svg xmlns:xlink="http://www.w3.org/1999/xlink" viewBox="0 0 197 49" fill="currentColor" xmlns="http://www.w3.org/2000/svg" width="197"  height="49" ><g fill-rule="nonzero" fill="#FFFFFF"><path d="M39.49 8.19a3.51 3.51 0 10-3.59-3.43 3.48 3.48 0 003.59 3.43zM43 33.61v-22H32.89v.11l3.11 2.6c.47.37.52.52.52 1.2v18.09a1.14 1.14 0 01-.52 1.15L32.89 37v.11h13.78V37l-3.07-2.24a1.13 1.13 0 01-.6-1.15zM145.17 33.61v-22H135v.11l3.07 2.59c.47.37.52.52.52 1.2v18.1a1.14 1.14 0 01-.52 1.15L135 37v.11h13.78V37l-3.06-2.23a1.12 1.12 0 01-.55-1.16zM141.64 8.19a3.51 3.51 0 10-3.59-3.43 3.49 3.49 0 003.59 3.43zM196.58 12.56v-.94h-6.92V3h-.1l-9.72 9.52h3.27v18.55c0 4.31 2.13 6.44 6.08 6.44a6.63 6.63 0 007-5.82h-.1a4 4 0 01-3.59 2.54c-1.82 0-2.86-1.35-2.86-3.69V12.56h6.94zM12.35 32.52v-32H.55v.1l4 2.81a1 1 0 01.57 1.14V33c0 .63 0 .78-.57 1.14l-4 2.81v.11h18.14V37l-5.77-3c-.57-.39-.57-.65-.57-1.48z" fill="#FFFFFF"></path><path d="M17.29.55h-2.63c4.91 0 8.24 4.31 8.24 11.18 0 7.33-3.78 11.43-8.24 11.43h1.64c8.11 0 14.3-3.9 14.3-11.54C30.6 3.56 24.52.55 17.29.55zM58.42 33.61v-22H48.28v.11l3.07 2.59c.47.37.52.52.52 1.2v18.1a1.14 1.14 0 01-.52 1.15L48.28 37v.11h13.78V37L59 34.76a1.13 1.13 0 01-.58-1.15zM73.86 33.61c0-4.16.1-8.94.1-11.8 0-7.17-2.7-10.6-7.59-10.6a7.56 7.56 0 00-5.64 2.21c5.51 0 6.68 4.23 6.68 9.85 0 2.28-.15 9.82-.15 10.4a1.15 1.15 0 01-.63 1.09L63.72 37v.11H77.5V37l-3.07-2.23a1.12 1.12 0 01-.57-1.16zM87.69 45.16V11.62H77.55v.11l3.07 2.59c.47.37.52.52.52 1.2v29.95a1.11 1.11 0 01-.52 1.14l-3.07 2.24V49h15.24v-.1l-4.32-2.5c-.67-.4-.78-.57-.78-1.24z" fill="#FFFFFF"></path><path d="M95.65 11.21A7.35 7.35 0 0090 13.53c5.85 0 7.92 4.43 7.92 10.52 0 7.48-2.6 12.25-7.92 12.25a7.94 7.94 0 004.54 1.21c6.09 0 10.4-5.35 10.4-13.83.06-7.48-3.58-12.47-9.29-12.47zM161.06 33.61v-22h-10.14v.11l3.08 2.6c.47.37.52.52.52 1.2v18.09a1.14 1.14 0 01-.52 1.15L150.92 37v.11h13.78V37l-3.06-2.23a1.14 1.14 0 01-.58-1.16zM176.5 33.61c.06-4.16.11-8.94.11-11.8 0-7.17-2.71-10.6-7.59-10.6a7.56 7.56 0 00-5.64 2.21c5.51 0 6.68 4.23 6.68 9.85 0 2.28-.16 9.82-.16 10.4a1.14 1.14 0 01-.62 1.09L166.37 37v.11h13.78V37l-3.07-2.23a1.13 1.13 0 01-.58-1.16zM116 24.36c0-8.31 1.5-12.38 3.94-13.06-6.87.46-11.38 5-11.38 13.06S113 37 119.93 37.42c-2.45-.68-3.93-4.74-3.93-13.06zM122.24 11.3c2.44.68 3.94 4.75 3.94 13.06 0 8.32-1.49 12.38-3.94 13.06 6.89-.46 11.37-5 11.37-13.06s-4.5-12.6-11.37-13.06z" fill="#FFFFFF"></path></g></svg>