<svg xmlns:xlink="http://www.w3.org/1999/xlink" width="24" height="24" fill="currentColor" xmlns="http://www.w3.org/2000/svg"><path d="M7.548 22c9.057 0 14.01-7.694 14.01-14.365a14.5 14.5 0 00-.014-.653A10.165 10.165 0 0024 4.368a9.638 9.638 0 01-2.828.794 5.045 5.045 0 002.165-2.792 9.724 9.724 0 01-3.126 1.225A4.864 4.864 0 0016.617 2c-2.72 0-4.925 2.261-4.925 5.048 0 .397.043.782.128 1.152-4.092-.211-7.721-2.22-10.15-5.275a5.127 5.127 0 00-.666 2.537c0 1.752.869 3.298 2.19 4.203a4.797 4.797 0 01-2.23-.632v.065c0 2.445 1.697 4.487 3.95 4.95a4.827 4.827 0 01-2.224.086c.627 2.006 2.445 3.466 4.6 3.507A9.727 9.727 0 010 19.732 13.692 13.692 0 007.548 22" fill-rule="nonzero" fill="#BBB9B3"></path></svg>