<svg width="56" height="56" viewBox="0 0 56 56" fill="none" xmlns="http://www.w3.org/2000/svg">
<circle cx="40" cy="40" r="16" fill="#F9E8D9"/>
<path d="M28 49C39.598 49 49 39.598 49 28C49 16.402 39.598 7 28 7C16.402 7 7 16.402 7 28C7 39.598 16.402 49 28 49Z" stroke="#1E1C1A" stroke-width="3" stroke-linecap="round" stroke-linejoin="round"/>
<path d="M28 35C31.866 35 35 31.866 35 28C35 24.134 31.866 21 28 21C24.134 21 21 24.134 21 28C21 31.866 24.134 35 28 35Z" stroke="#1E1C1A" stroke-width="3" stroke-linecap="round" stroke-linejoin="round"/>
<path d="M49 28H35" stroke="#1E1C1A" stroke-width="3" stroke-linecap="round" stroke-linejoin="round"/>
<path d="M42.8493 13.1506L32.9498 23.0501" stroke="#1E1C1A" stroke-width="3" stroke-linecap="round" stroke-linejoin="round"/>
</svg>
