<svg width="40" height="40" viewBox="0 0 40 40" fill="none" xmlns="http://www.w3.org/2000/svg">
<path d="M20 3.33331C29.205 3.33331 36.6667 10.795 36.6667 20C36.6667 29.205 29.205 36.6666 20 36.6666C10.795 36.6666 3.33334 29.205 3.33334 20C3.33334 10.795 10.795 3.33331 20 3.33331ZM14.705 25.5716C14.0467 24.7766 13.2283 24.4933 12.24 24.7233L11.99 24.7916L11.0067 26.485C10.8212 26.7869 10.7598 27.1489 10.8353 27.4951C10.9107 27.8412 11.1172 28.1448 11.4115 28.3421C11.7058 28.5395 12.065 28.6153 12.414 28.5537C12.7629 28.4921 13.0744 28.2978 13.2833 28.0116L13.3867 27.8566L14.7033 25.5716H14.705ZM22.0167 14.4333C21.2033 15.1066 20.3833 17.095 21.5333 19.0783L26.6 27.855C26.7755 28.1531 27.057 28.3741 27.3883 28.4737C27.7196 28.5733 28.0763 28.5442 28.3871 28.3921C28.6979 28.2401 28.9398 27.9764 29.0646 27.6537C29.1893 27.3311 29.1877 26.9732 29.06 26.6516L28.9783 26.485L27.6417 24.165H29.625C29.8052 24.1654 29.9837 24.1302 30.1502 24.0614C30.3167 23.9926 30.468 23.8916 30.5953 23.7641C30.7226 23.6366 30.8235 23.4852 30.8921 23.3186C30.9607 23.152 30.9957 22.9735 30.995 22.7933C30.9959 22.4591 30.8742 22.1362 30.6531 21.8856C30.432 21.635 30.1267 21.4741 29.795 21.4333L29.6233 21.4233H26.0567L22.4 15.095L22.0167 14.435V14.4333ZM22.48 9.35998C22.1922 9.19466 21.8543 9.13903 21.5287 9.20336C21.203 9.26768 20.9117 9.44763 20.7083 9.70998L20.605 9.86331L19.9933 10.9183L19.395 9.86331C19.2196 9.56515 18.938 9.34418 18.6067 9.24459C18.2754 9.14501 17.9187 9.17413 17.6079 9.32615C17.2972 9.47817 17.0552 9.74187 16.9305 10.0646C16.8057 10.3872 16.8073 10.7451 16.935 11.0666L17.0167 11.2333L18.4133 13.6616L13.9383 21.4166H10.4433C10.2633 21.4162 10.085 21.4513 9.91855 21.52C9.75213 21.5887 9.60093 21.6896 9.47363 21.8169C9.34632 21.9442 9.24543 22.0954 9.17673 22.2619C9.10804 22.4283 9.0729 22.6066 9.07334 22.7866C9.07334 23.4883 9.59334 24.0633 10.2717 24.1483L10.4433 24.1583H22.91C23.4767 23.0916 22.81 21.5766 21.56 21.4283L21.3583 21.4166H17.1033L22.9833 11.2333C23.165 10.9181 23.214 10.5437 23.1196 10.1924C23.0252 9.84109 22.7952 9.54166 22.48 9.35998Z" fill="white"/>
</svg>
