<svg width="164" height="36" viewBox="0 0 164 36" fill="none" xmlns="http://www.w3.org/2000/svg">
<path d="M53.514 10.804C55.6807 10.804 57.3447 11.324 58.506 12.364C59.6673 13.3867 60.248 14.938 60.248 17.018V25H56.452V23.258C55.6893 24.558 54.268 25.208 52.188 25.208C51.1133 25.208 50.1773 25.026 49.38 24.662C48.6 24.298 48.002 23.7953 47.586 23.154C47.17 22.5127 46.962 21.7847 46.962 20.97C46.962 19.67 47.4473 18.6473 48.418 17.902C49.406 17.1567 50.9227 16.784 52.968 16.784H56.192C56.192 15.9 55.9233 15.224 55.386 14.756C54.8487 14.2707 54.0427 14.028 52.968 14.028C52.2227 14.028 51.486 14.1493 50.758 14.392C50.0473 14.6173 49.4407 14.9293 48.938 15.328L47.482 12.494C48.2447 11.9567 49.1547 11.5407 50.212 11.246C51.2867 10.9513 52.3873 10.804 53.514 10.804ZM53.202 22.478C53.8953 22.478 54.5107 22.322 55.048 22.01C55.5853 21.6807 55.9667 21.204 56.192 20.58V19.15H53.41C51.746 19.15 50.914 19.696 50.914 20.788C50.914 21.308 51.1133 21.724 51.512 22.036C51.928 22.3307 52.4913 22.478 53.202 22.478ZM72.1869 10.804C73.4869 10.804 74.6655 11.1073 75.7229 11.714C76.7975 12.3033 77.6382 13.144 78.2449 14.236C78.8515 15.3107 79.1549 16.5673 79.1549 18.006C79.1549 19.4447 78.8515 20.71 78.2449 21.802C77.6382 22.8767 76.7975 23.7173 75.7229 24.324C74.6655 24.9133 73.4869 25.208 72.1869 25.208C70.4015 25.208 68.9975 24.6447 67.9749 23.518V30.044H63.9189V11.012H67.7929V12.624C68.7982 11.4107 70.2629 10.804 72.1869 10.804ZM71.4849 21.88C72.5249 21.88 73.3742 21.5333 74.0329 20.84C74.7089 20.1293 75.0469 19.1847 75.0469 18.006C75.0469 16.8273 74.7089 15.8913 74.0329 15.198C73.3742 14.4873 72.5249 14.132 71.4849 14.132C70.4449 14.132 69.5869 14.4873 68.9109 15.198C68.2522 15.8913 67.9229 16.8273 67.9229 18.006C67.9229 19.1847 68.2522 20.1293 68.9109 20.84C69.5869 21.5333 70.4449 21.88 71.4849 21.88ZM90.138 10.804C91.438 10.804 92.6167 11.1073 93.674 11.714C94.7487 12.3033 95.5894 13.144 96.196 14.236C96.8027 15.3107 97.106 16.5673 97.106 18.006C97.106 19.4447 96.8027 20.71 96.196 21.802C95.5894 22.8767 94.7487 23.7173 93.674 24.324C92.6167 24.9133 91.438 25.208 90.138 25.208C88.3527 25.208 86.9487 24.6447 85.926 23.518V30.044H81.87V11.012H85.744V12.624C86.7494 11.4107 88.214 10.804 90.138 10.804ZM89.436 21.88C90.476 21.88 91.3254 21.5333 91.984 20.84C92.66 20.1293 92.998 19.1847 92.998 18.006C92.998 16.8273 92.66 15.8913 91.984 15.198C91.3254 14.4873 90.476 14.132 89.436 14.132C88.396 14.132 87.538 14.4873 86.862 15.198C86.2034 15.8913 85.874 16.8273 85.874 18.006C85.874 19.1847 86.2034 20.1293 86.862 20.84C87.538 21.5333 88.396 21.88 89.436 21.88ZM104.267 11.324H107.855V14.444H104.371V25H100.315V14.444H98.1572V11.324H100.315V10.7C100.315 9.10533 100.783 7.84 101.719 6.904C102.673 5.968 104.007 5.5 105.723 5.5C106.33 5.5 106.902 5.56933 107.439 5.708C107.994 5.82933 108.453 6.01133 108.817 6.254L107.751 9.192C107.283 8.86267 106.737 8.698 106.113 8.698C104.883 8.698 104.267 9.374 104.267 10.726V11.324ZM109.883 5.708H113.939V25H109.883V5.708ZM124.378 25.208C122.904 25.208 121.578 24.9047 120.4 24.298C119.238 23.674 118.328 22.816 117.67 21.724C117.011 20.632 116.682 19.3927 116.682 18.006C116.682 16.6193 117.011 15.38 117.67 14.288C118.328 13.196 119.238 12.3467 120.4 11.74C121.578 11.116 122.904 10.804 124.378 10.804C125.851 10.804 127.168 11.116 128.33 11.74C129.491 12.3467 130.401 13.196 131.06 14.288C131.718 15.38 132.048 16.6193 132.048 18.006C132.048 19.3927 131.718 20.632 131.06 21.724C130.401 22.816 129.491 23.674 128.33 24.298C127.168 24.9047 125.851 25.208 124.378 25.208ZM124.378 21.88C125.418 21.88 126.267 21.5333 126.926 20.84C127.602 20.1293 127.94 19.1847 127.94 18.006C127.94 16.8273 127.602 15.8913 126.926 15.198C126.267 14.4873 125.418 14.132 124.378 14.132C123.338 14.132 122.48 14.4873 121.804 15.198C121.128 15.8913 120.79 16.8273 120.79 18.006C120.79 19.1847 121.128 20.1293 121.804 20.84C122.48 21.5333 123.338 21.88 124.378 21.88ZM156.842 11.012L151.772 25H147.872L144.726 16.316L141.476 25H137.576L132.532 11.012H136.354L139.656 20.476L143.088 11.012H146.52L149.848 20.476L153.254 11.012H156.842Z" fill="#1E1C1A"/>
<path d="M160.261 25.208C159.551 25.208 158.953 24.9653 158.467 24.48C157.982 23.9947 157.739 23.388 157.739 22.66C157.739 21.9147 157.982 21.3167 158.467 20.866C158.953 20.398 159.551 20.164 160.261 20.164C160.972 20.164 161.57 20.398 162.055 20.866C162.541 21.3167 162.783 21.9147 162.783 22.66C162.783 23.388 162.541 23.9947 162.055 24.48C161.57 24.9653 160.972 25.208 160.261 25.208Z" fill="#E73B31"/>
<circle cx="18" cy="18" r="18" fill="#1E1C1A"/>
<path d="M18 8L20.702 16.44L26.6603 23L18 21.12L9.33975 23L15.298 16.44L18 8Z" fill="white"/>
</svg>
