<svg width="48" height="48" viewBox="0 0 48 48" fill="none" xmlns="http://www.w3.org/2000/svg">
<circle cx="32" cy="32" r="16" fill="#D9F0F9"/>
<path d="M24 37.4998C27 37.4998 31.9605 37.466 37.6668 34.1714C43.3732 30.8769 45.2197 26.7497 45.8106 24.6368C45.8637 24.4458 45.8781 24.2461 45.8531 24.0495C45.8281 23.8528 45.7642 23.6631 45.6651 23.4914C45.566 23.3198 45.4337 23.1696 45.2758 23.0496C45.118 22.9296 44.9379 22.8423 44.746 22.7927C43.3619 22.438 40.9717 22.1173 37.8967 22.8467" stroke="#1E1C1A" stroke-width="3" stroke-linecap="round" stroke-linejoin="round"/>
<path d="M10.1029 22.8466C7.02812 22.1173 4.63808 22.438 3.25406 22.7927C3.06213 22.8423 2.882 22.9296 2.72419 23.0496C2.56638 23.1696 2.43405 23.3198 2.33493 23.4914C2.23582 23.6631 2.1719 23.8528 2.14691 24.0495C2.12193 24.2461 2.13637 24.4458 2.1894 24.6368C2.78029 26.7497 4.62686 30.8769 10.3332 34.1714C16.0396 37.466 21 37.4998 24 37.4998" stroke="#1E1C1A" stroke-width="3" stroke-linecap="round" stroke-linejoin="round"/>
<path d="M24 37.4998C24 37.4998 31.5 33.4089 31.5 22.4998C31.5 13.9528 26.8962 9.59098 24.9025 8.10286C24.642 7.90787 24.3254 7.80249 24 7.80249C23.6746 7.80249 23.358 7.90787 23.0975 8.10286C21.1038 9.59098 16.5 13.9528 16.5 22.4998C16.5 33.4089 24 37.4998 24 37.4998Z" stroke="#1E1C1A" stroke-width="3" stroke-linecap="round" stroke-linejoin="round"/>
<path d="M24 37.4999C26.2482 37.0218 32.3119 33.6033 35.9462 27.3086C39.5804 21.0138 38.6853 15.9875 37.9753 13.8014C37.8611 13.4487 37.6201 13.1508 37.299 12.9654C36.9779 12.78 36.5994 12.7203 36.2368 12.7977C34.0871 13.2851 32.0765 14.2555 30.3575 15.6355" stroke="#1E1C1A" stroke-width="3" stroke-linecap="round" stroke-linejoin="round"/>
<path d="M17.6424 15.6354C15.9235 14.2555 13.9129 13.2851 11.7632 12.7977C11.4006 12.7203 11.0222 12.78 10.701 12.9654C10.3799 13.1508 10.139 13.4487 10.0247 13.8014C9.31474 15.9875 8.41961 21.0138 12.0539 27.3086C15.6882 33.6033 21.7519 37.0218 24 37.4999" stroke="#1E1C1A" stroke-width="3" stroke-linecap="round" stroke-linejoin="round"/>
</svg>
