<svg width="24" height="24" viewBox="0 0 24 24" fill="none" xmlns="http://www.w3.org/2000/svg">
<path d="M20.8098 14.852L16.4188 12.9702C16.1895 12.8715 15.9392 12.8317 15.6907 12.8546C15.4421 12.8774 15.2032 12.9621 14.9958 13.1009L12.648 14.6659C11.2131 13.968 10.0518 12.8118 9.34753 11.38L9.34771 11.3798L10.9072 8.99685C11.043 8.78998 11.1253 8.55269 11.1469 8.3062C11.1685 8.05971 11.1287 7.81171 11.031 7.58438L9.1474 3.18958C9.01918 2.89126 8.79778 2.64249 8.51635 2.48054C8.23492 2.31858 7.9086 2.25214 7.58624 2.29117C6.31956 2.45403 5.15548 3.07247 4.31148 4.03095C3.46749 4.98943 3.00129 6.2224 3 7.49951C3 14.9435 9.05603 20.9995 16.5 20.9995C17.7771 20.9982 19.0101 20.532 19.9686 19.688C20.9271 18.844 21.5455 17.6799 21.7083 16.4132C21.7473 16.0908 21.6808 15.7645 21.5188 15.4831C21.3568 15.2017 21.1081 14.9803 20.8098 14.852Z" fill="#1E1C1A"/>
</svg>
