<svg width="36" height="36" viewBox="0 0 36 36" fill="none" xmlns="http://www.w3.org/2000/svg">
<path d="M5.4135 2.72107L20.688 18.0001L5.415 33.2791C5.14341 33.1649 4.91164 32.973 4.74884 32.7274C4.58603 32.4819 4.49946 32.1937 4.5 31.8991V4.10107C4.50012 3.8068 4.58678 3.51907 4.74921 3.27369C4.91164 3.02831 5.14266 2.83613 5.4135 2.72107ZM21.7485 19.0606L25.2015 22.5136L8.796 32.0131L21.7485 19.0606ZM26.547 14.2636L30.7575 16.7026C30.9848 16.8344 31.1735 17.0237 31.3047 17.2514C31.4358 17.4791 31.5048 17.7373 31.5048 18.0001C31.5048 18.2629 31.4358 18.521 31.3047 18.7487C31.1735 18.9764 30.9848 19.1657 30.7575 19.2976L26.5455 21.7366L22.809 18.0001L26.547 14.2636ZM8.796 3.98707L25.203 13.4851L21.7485 16.9396L8.796 3.98707Z" fill="white"/>
</svg>
