<svg width="163" height="196" viewBox="0 0 163 196" fill="none" xmlns="http://www.w3.org/2000/svg">
<path d="M163 8.89091L155.501 11.3009L149.664 16.5907L151.326 8.89091L149.664 1.19116L155.501 6.48089L163 8.89091Z" fill="#DFD9F9"/>
<path d="M133.956 8.89091L126.457 11.3009L120.62 16.5907L122.283 8.89091L120.62 1.19116L126.457 6.48089L133.956 8.89091Z" fill="#DFD9F9"/>
<path d="M104.913 8.89091L97.4132 11.3009L91.5764 16.5907L93.239 8.89091L91.5764 1.19116L97.4132 6.48089L104.913 8.89091Z" fill="#DFD9F9"/>
<path d="M75.8691 8.89091L68.3696 11.3009L62.5327 16.5907L64.1953 8.89091L62.5327 1.19116L68.3696 6.48089L75.8691 8.89091Z" fill="#DFD9F9"/>
<path d="M46.8254 8.89091L39.326 11.3009L33.4891 16.5907L35.1517 8.89091L33.4891 1.19116L39.326 6.48089L46.8254 8.89091Z" fill="#DFD9F9"/>
<path d="M17.7818 8.89091L10.2823 11.3009L4.44543 16.5907L6.10804 8.89091L4.44544 1.19116L10.2823 6.48089L17.7818 8.89091Z" fill="#DFD9F9"/>
<path d="M163 38.5273L155.501 40.9373L149.664 46.227L151.326 38.5273L149.664 30.8275L155.501 36.1172L163 38.5273Z" fill="#DFD9F9"/>
<path d="M133.956 38.5273L126.457 40.9373L120.62 46.227L122.283 38.5273L120.62 30.8275L126.457 36.1172L133.956 38.5273Z" fill="#DFD9F9"/>
<path d="M104.913 38.5273L97.4132 40.9373L91.5764 46.227L93.239 38.5273L91.5764 30.8275L97.4132 36.1172L104.913 38.5273Z" fill="#DFD9F9"/>
<path d="M75.8691 38.5273L68.3696 40.9373L62.5327 46.227L64.1953 38.5273L62.5327 30.8275L68.3696 36.1172L75.8691 38.5273Z" fill="#DFD9F9"/>
<path d="M46.8254 38.5273L39.326 40.9373L33.4891 46.227L35.1517 38.5273L33.4891 30.8275L39.326 36.1172L46.8254 38.5273Z" fill="#DFD9F9"/>
<path d="M17.7818 38.5273L10.2823 40.9373L4.44543 46.227L6.10804 38.5273L4.44544 30.8275L10.2823 36.1172L17.7818 38.5273Z" fill="#DFD9F9"/>
<path d="M163 68.1636L155.501 70.5736L149.664 75.8634L151.326 68.1636L149.664 60.4639L155.501 65.7536L163 68.1636Z" fill="#DFD9F9"/>
<path d="M133.956 68.1636L126.457 70.5736L120.62 75.8634L122.283 68.1636L120.62 60.4639L126.457 65.7536L133.956 68.1636Z" fill="#DFD9F9"/>
<path d="M104.913 68.1636L97.4132 70.5736L91.5764 75.8634L93.239 68.1636L91.5764 60.4639L97.4132 65.7536L104.913 68.1636Z" fill="#DFD9F9"/>
<path d="M75.8691 68.1636L68.3696 70.5736L62.5327 75.8634L64.1953 68.1636L62.5327 60.4639L68.3696 65.7536L75.8691 68.1636Z" fill="#DFD9F9"/>
<path d="M46.8254 68.1636L39.326 70.5736L33.4891 75.8634L35.1517 68.1636L33.4891 60.4639L39.326 65.7536L46.8254 68.1636Z" fill="#DFD9F9"/>
<path d="M17.7818 68.1636L10.2823 70.5736L4.44543 75.8634L6.10804 68.1636L4.44544 60.4639L10.2823 65.7536L17.7818 68.1636Z" fill="#DFD9F9"/>
<path d="M163 97.8L155.501 100.21L149.664 105.5L151.326 97.8L149.664 90.1002L155.501 95.3899L163 97.8Z" fill="#DFD9F9"/>
<path d="M133.956 97.8L126.457 100.21L120.62 105.5L122.283 97.8L120.62 90.1002L126.457 95.3899L133.956 97.8Z" fill="#DFD9F9"/>
<path d="M104.913 97.8L97.4132 100.21L91.5764 105.5L93.239 97.8L91.5764 90.1002L97.4132 95.3899L104.913 97.8Z" fill="#DFD9F9"/>
<path d="M75.8691 97.8L68.3696 100.21L62.5327 105.5L64.1953 97.8L62.5327 90.1002L68.3696 95.3899L75.8691 97.8Z" fill="#DFD9F9"/>
<path d="M46.8254 97.8L39.326 100.21L33.4891 105.5L35.1517 97.8L33.4891 90.1002L39.326 95.3899L46.8254 97.8Z" fill="#DFD9F9"/>
<path d="M17.7818 97.8L10.2823 100.21L4.44543 105.5L6.10804 97.8L4.44544 90.1002L10.2823 95.3899L17.7818 97.8Z" fill="#DFD9F9"/>
<path d="M163 127.436L155.501 129.846L149.664 135.136L151.326 127.436L149.664 119.737L155.501 125.026L163 127.436Z" fill="#DFD9F9"/>
<path d="M133.956 127.436L126.457 129.846L120.62 135.136L122.283 127.436L120.62 119.737L126.457 125.026L133.956 127.436Z" fill="#DFD9F9"/>
<path d="M104.913 127.436L97.4132 129.846L91.5764 135.136L93.239 127.436L91.5764 119.737L97.4132 125.026L104.913 127.436Z" fill="#DFD9F9"/>
<path d="M75.8691 127.436L68.3696 129.846L62.5327 135.136L64.1953 127.436L62.5327 119.737L68.3696 125.026L75.8691 127.436Z" fill="#DFD9F9"/>
<path d="M46.8254 127.436L39.326 129.846L33.4891 135.136L35.1517 127.436L33.4891 119.737L39.326 125.026L46.8254 127.436Z" fill="#DFD9F9"/>
<path d="M17.7818 127.436L10.2823 129.846L4.44543 135.136L6.10804 127.436L4.44544 119.737L10.2823 125.026L17.7818 127.436Z" fill="#DFD9F9"/>
<path d="M163 157.073L155.501 159.483L149.664 164.773L151.326 157.073L149.664 149.373L155.501 154.663L163 157.073Z" fill="#DFD9F9"/>
<path d="M133.956 157.073L126.457 159.483L120.62 164.772L122.283 157.073L120.62 149.373L126.457 154.663L133.956 157.073Z" fill="#DFD9F9"/>
<path d="M104.913 157.073L97.4132 159.483L91.5764 164.772L93.239 157.073L91.5764 149.373L97.4132 154.663L104.913 157.073Z" fill="#DFD9F9"/>
<path d="M75.8691 157.073L68.3696 159.483L62.5327 164.772L64.1953 157.073L62.5327 149.373L68.3696 154.663L75.8691 157.073Z" fill="#DFD9F9"/>
<path d="M46.8254 157.073L39.326 159.483L33.4891 164.772L35.1517 157.073L33.4891 149.373L39.326 154.663L46.8254 157.073Z" fill="#DFD9F9"/>
<path d="M17.7818 157.073L10.2823 159.483L4.44543 164.772L6.10804 157.073L4.44544 149.373L10.2823 154.663L17.7818 157.073Z" fill="#DFD9F9"/>
<path d="M163 186.709L155.501 189.119L149.664 194.409L151.326 186.709L149.664 179.009L155.501 184.299L163 186.709Z" fill="#DFD9F9"/>
<path d="M133.956 186.709L126.457 189.119L120.62 194.409L122.283 186.709L120.62 179.009L126.457 184.299L133.956 186.709Z" fill="#DFD9F9"/>
<path d="M104.913 186.709L97.4132 189.119L91.5764 194.409L93.239 186.709L91.5764 179.009L97.4132 184.299L104.913 186.709Z" fill="#DFD9F9"/>
<path d="M75.8691 186.709L68.3696 189.119L62.5327 194.409L64.1953 186.709L62.5327 179.009L68.3696 184.299L75.8691 186.709Z" fill="#DFD9F9"/>
<path d="M46.8254 186.709L39.326 189.119L33.4891 194.409L35.1517 186.709L33.4891 179.009L39.326 184.299L46.8254 186.709Z" fill="#DFD9F9"/>
<path d="M17.7818 186.709L10.2823 189.119L4.44543 194.409L6.10804 186.709L4.44544 179.009L10.2823 184.299L17.7818 186.709Z" fill="#DFD9F9"/>
</svg>
