<svg xmlns:xlink="http://www.w3.org/1999/xlink" fill="none" height="19" viewBox="0 0 103 19" width="103" xmlns="http://www.w3.org/2000/svg"><g fill="#FFFFFF"><path d="m.816406 7c0 3.408 2.448004 6.264 5.640004 6.264 1.656 0 2.928-.84 3.456-1.608v1.344h3.28799v-12h-3.28799v1.344c-.528-.768-1.8-1.608-3.456-1.608-3.192 0-5.640004 2.856-5.640004 6.264zm9.359994 0c0 1.872-1.22399 3.264-3.02399 3.264s-3.024-1.392-3.024-3.264 1.224-3.264 3.024-3.264 3.02399 1.392 3.02399 3.264z" fill="#FFFFFF"></path><path d="m16.3969 13h3.288v-5.856c0-2.304 1.152-3.408 2.664-3.408 1.368 0 2.112 1.056 2.112 2.784v6.48h3.288v-7.032c0-3.12-1.728-5.232-4.632-5.232-1.56 0-2.808.672-3.432 1.632v-1.368h-3.288z" fill="#FFFFFF"></path><path d="m29.9961 7c0 3.408 2.448 6.264 5.64 6.264 1.656 0 2.928-.84 3.456-1.608v1.344h3.288v-12h-3.288v1.344c-.528-.768-1.8-1.608-3.456-1.608-3.192 0-5.64 2.856-5.64 6.264zm9.36 0c0 1.872-1.224 3.264-3.024 3.264s-3.024-1.392-3.024-3.264 1.224-3.264 3.024-3.264 3.024 1.392 3.024 3.264z" fill="#FFFFFF"></path><path d="m45.3366 13.744c.216 2.568 2.448 4.512 5.856 4.512 3.12 0 6.048-1.656 6.048-6v-11.256h-3.288v1.344c-.6-.912-1.92-1.608-3.456-1.608-3.12 0-5.664 2.688-5.664 6.072 0 3.36 2.544 6.048 5.664 6.048 1.536 0 2.856-.696 3.456-1.584v1.416c0 1.896-1.248 2.832-2.688 2.832-1.368 0-2.304-.552-2.736-1.776zm8.88-6.936c0 1.824-1.368 3.072-3.024 3.072s-3.048-1.248-3.048-3.072c0-1.848 1.392-3.072 3.048-3.072s3.024 1.224 3.024 3.072z" fill="#FFFFFF"></path><path d="m60.436 13h3.288v-5.736c0-1.968 1.032-3.192 2.592-3.192.528 0 .984.096 1.488.264v-3.336c-.408-.119999-.768-.144-1.104-.144-1.344 0-2.568.888-2.976 2.064v-1.92h-3.288z" fill="#FFFFFF"></path><path d="m68.7383 7c0 3.408 2.448 6.264 5.64 6.264 1.656 0 2.928-.84 3.456-1.608v1.344h3.288v-12h-3.288v1.344c-.528-.768-1.8-1.608-3.456-1.608-3.192 0-5.64 2.856-5.64 6.264zm9.36 0c0 1.872-1.224 3.264-3.024 3.264s-3.024-1.392-3.024-3.264 1.224-3.264 3.024-3.264 3.024 1.392 3.024 3.264z" fill="#FFFFFF"></path><path d="m84.3188 13h3.288v-5.856c0-2.304.984-3.408 2.4-3.408 1.296 0 1.872 1.08 1.872 2.856v6.408h3.288v-5.856c0-2.304.984-3.408 2.4-3.408 1.296 0 1.872 1.08 1.872 2.856v6.408h3.2882v-6.96c0-3.24-1.632-5.304-4.4882-5.304-1.368 0-2.976.72-3.72 2.208-.72-1.392-1.968-2.208-3.72-2.208-1.464 0-2.544.696-3.192 1.632v-1.368h-3.288z" fill="#FFFFFF"></path></g></svg>