<svg xmlns:xlink="http://www.w3.org/1999/xlink" xmlns="http://www.w3.org/2000/svg" width="20" height="20" fill="none"><path fill-rule="evenodd" clip-rule="evenodd" d="M10 3.75A1.75 1.75 0 008.25 5.5v1.75h3.5V5.5A1.75 1.75 0 0010 3.75zM6.75 5.5v1.75H4.545c-.737 0-1.295.61-1.295 1.313v7.874c0 .703.558 1.313 1.295 1.313h10.91c.737 0 1.295-.61 1.295-1.313V8.563c0-.702-.558-1.312-1.296-1.312H13.25V5.5a3.25 3.25 0 10-6.5 0zm-2 3.25h10.5v7.5H4.75v-7.5zm5.25 4.5a.75.75 0 000-1.5h-.001a.75.75 0 000 1.5H10z" fill="currentColor"></path></svg>