<svg xmlns:xlink="http://www.w3.org/1999/xlink" xmlns="http://www.w3.org/2000/svg" viewBox="0 0 158 40" fill="none" class="Navigation__StyledLogoSVG-yoq9pp-3 fZWank" width="158"  height="40" ><path id="logo-name" fill-rule="evenodd" clip-rule="evenodd" d="M58.977 3.155c3.678 0 5.565 2.135 5.565 4.672 0 2.47-1.834 4.58-5.41 4.58l-.155-.002h-7.548v-9.25h7.548zM47.974 0v24.378h3.455v-8.755h7.676c6.46 0 9.02-3.867 9.02-7.796 0-3.929-2.56-7.827-9.02-7.827h-11.13zm33.872 3.217c3.679 0 5.502 1.578 5.566 4.084 0 2.537-1.887 4.114-5.566 4.114H74.65V3.217h7.196zM71.164 0v24.378h3.454v-9.776h3.774l8.316 9.776h4.606l-5.95-6.868-2.878-2.815v-.093c6.077-.186 8.476-3.496 8.508-7.301 0-3.929-2.559-7.301-9.02-7.301h-10.81zM95.12 24.378V0h3.422v24.378H95.12zM103.787 0v24.378h3.327V11.539l-.256-8.198h.096l2.75 6.96 6.077 14.077h3.231l6.173-14.045 2.718-6.96h.064l-.224 8.197v12.808h3.422V0h-5.277l-5.341 12.56-3.039 8.322h-.095l-3.071-8.322L109.065 0h-5.278zm44.426 10.61l-2.975-7.238h-.063L142.2 10.55l-2.015 4.64h10.075l-2.047-4.578zm-15.704 13.768L143.447 0h3.615L158 24.378h-3.742l-2.623-6.033h-12.857l-2.719 6.033h-3.55zm-84.821 6.248v9.22h1.343V35.73h5.821v4.114h1.312v-9.219h-1.312v3.898h-5.821v-3.898h-1.343zm15.128 5.229c-.128-1.052-.927-1.64-2.047-1.64-1.151 0-1.919.711-2.142 1.64h4.19zm-5.533.742c0-1.949 1.44-3.403 3.486-3.403 2.079 0 3.39 1.423 3.39 3.712h-5.596c.127 1.176 1.055 2.043 2.27 2.043 1.023-.093 1.791-.557 1.983-1.269h1.28C63.838 38.856 62.72 40 60.8 40c-2.015 0-3.518-1.485-3.518-3.403zm11.098-2.32c1.312 0 2.24.959 2.24 2.258 0 1.31-.9 2.29-2.18 2.29h-.06c-1.343 0-2.239-.96-2.239-2.29 0-1.3.896-2.258 2.24-2.258zm-.127-1.083c-1.92 0-3.36 1.454-3.36 3.403 0 1.918 1.44 3.403 3.36 3.403.959 0 1.822-.433 2.27-1.083h.032l.128.928h1.248l-.16-1.052v-5.475h-1.088l-.127.959h-.033c-.383-.619-1.247-1.083-2.27-1.083zm5.181 6.651v-9.219h1.247v9.22h-1.247zm3.742-8.29v1.701h-1.44v1.114h1.44v5.475h3.07v-1.144h-1.855V34.37h1.696v-1.114h-1.696v-1.701h-1.215zm4.03 8.26v-9.189h1.247v3.682h.032c.48-.712 1.28-1.207 2.399-1.207 1.76.032 2.75 1.052 2.75 2.877v3.867h-1.247V36.01c0-1.238-.703-1.826-1.79-1.826-1.12 0-2.144.804-2.144 2.537v3.094h-1.247zm12.442-9.25c-2.943 0-4.958 1.949-4.958 4.702S90.706 40 93.65 40c2.43 0 4.254-1.64 4.637-3.774h-1.375c-.352 1.547-1.6 2.599-3.262 2.599-2.175 0-3.614-1.424-3.614-3.527 0-2.073 1.439-3.496 3.614-3.496 1.63 0 3.038 1.083 3.262 2.568h1.375c-.32-2.197-2.238-3.805-4.637-3.805zm6.013 9.28v-6.589h3.965v1.114h-2.718v5.475h-1.247zm8.028-5.63c1.151 0 1.95.588 2.046 1.64h-4.189c.256-.928.991-1.64 2.143-1.64zm0-1.02c-2.016 0-3.455 1.453-3.455 3.402 0 1.918 1.472 3.403 3.518 3.403 1.92 0 3.039-1.144 3.263-2.32h-1.28c-.192.712-.959 1.176-1.95 1.269-1.248 0-2.143-.867-2.272-2.043h5.598c0-2.289-1.343-3.712-3.422-3.712zm9.818 3.34c0-1.3-.927-2.258-2.238-2.258-1.344 0-2.239.959-2.239 2.258 0 1.33.895 2.29 2.239 2.29h.058c1.25 0 2.18-.98 2.18-2.29zm-.095-2.258v-3.588h1.247v8.167l.128.99h-1.248l-.127-.929h-.032c-.448.65-1.312 1.083-2.271 1.083-1.919 0-3.359-1.485-3.359-3.403 0-1.949 1.44-3.403 3.359-3.403 1.023 0 1.855.464 2.271 1.083h.032zm2.846-3.65v1.268h1.311v-1.269h-1.311zm.032 2.629v6.59h1.247v-6.59h-1.247zm3.838 0v-1.701h1.248v1.701h1.695v1.114h-1.728V38.7h1.824v1.144h-3.039V34.37h-1.439v-1.114h1.439z" fill="#000"></path><path fill-rule="evenodd" clip-rule="evenodd" d="M0 10.147V.062h10.395c4.957 0 8.987 3.929 8.987 8.724V18.84H8.988C4.03 18.84 0 14.973 0 10.147zM30.544.093c-4.957 0-8.987 3.898-8.987 8.693V18.84h10.395c4.957 0 8.987-3.898 8.987-8.693V.093H30.544zm-8.987 20.882v10.054c0 4.795 4.03 8.693 8.987 8.693H40.94V29.667c0-4.794-4.03-8.692-8.987-8.692H21.557z" fill="#000"></path></svg>