<svg xmlns:xlink="http://www.w3.org/1999/xlink" xmlns="http://www.w3.org/2000/svg" viewBox="0 0 340 700" fill="none" class="BaseAsset__StyledMaskMobileSVG-sc-7qybu3-2 bmLItR" width="340"  height="700" ><path fill-rule="evenodd" clip-rule="evenodd" d="M51.205 0C22.925 0 0 23.198 0 51.813v596.374C0 676.802 22.925 700 51.205 700h237.59c28.28 0 51.205-23.198 51.205-51.813V51.813C340 23.198 317.075 0 288.795 0H51.205zM12 81.112c0-24.192 0-36.287 4.784-45.527 4.207-8.128 10.922-14.736 19.18-18.877C45.352 12 51.607 12 76.188 12h3.979a8.639 8.639 0 018.639 8.639c0 9.542 7.86 17.278 17.555 17.278h127.278c9.696 0 17.555-7.736 17.555-17.278A8.64 8.64 0 01259.833 12h6.723c24.58 0 28.092 0 37.48 4.708 8.258 4.141 14.973 10.75 19.18 18.877C328 44.825 328 56.92 328 81.112v537.776c0 24.192 0 36.287-4.784 45.527-4.207 8.128-10.922 14.736-19.18 18.877C294.648 688 282.358 688 257.778 688H82.222c-24.58 0-36.87 0-46.258-4.708-8.258-4.141-14.973-10.749-19.18-18.877C12 655.175 12 643.08 12 618.888V81.112z" fill="#000"></path></svg>