<svg xmlns="http://www.w3.org/2000/svg" fill="none" viewBox="0 0 73 19" height="19" width="73">
<path fill="black" d="M30.8073 1.51315C30.7864 2.34803 30.7968 3.02637 30.8177 3.02637C30.8386 3.02637 31.6004 2.52544 32.5188 1.90971C33.9798 0.918294 34.1677 0.761754 34.1677 0.500853C34.1677 0.323441 34.0946 0.177337 33.9694 0.104285C33.8546 0.052105 33.1136 -7.50609e-05 32.2996 -7.50609e-05H30.8386L30.8073 1.51315Z"></path>
<path fill="black" d="M42.0468 3.40116C39.9178 3.72467 38.1959 5.08136 37.3192 7.11638L37.0375 7.77385L37.0062 12.7518L36.9749 17.7402H38.7072H40.4292V13.1693V8.58785L40.6692 8.12867C41.5771 6.41716 44.0192 6.44847 44.9062 8.19129L45.1776 8.70265L45.2089 13.2214L45.2402 17.7402H46.9517H48.6632L48.6945 13.1693C48.7258 8.15998 48.7049 8.31652 49.3937 7.586C50.4895 6.39629 52.4723 6.69894 53.2028 8.15998L53.4742 8.70265V13.2214V17.7402H55.1961H56.9181V13.1171C56.9181 8.03475 56.8868 7.75297 56.2815 6.55283C55.8849 5.77013 54.8935 4.70566 54.1003 4.2256C52.8585 3.47421 51.3765 3.20287 50.0303 3.48465C49.1015 3.68293 47.9431 4.21517 47.3691 4.7161L46.9621 5.08136L46.4403 4.67435C45.8142 4.17342 45.1567 3.83947 44.4157 3.60988C43.8209 3.4429 42.5581 3.32811 42.0468 3.40116Z"></path>
<path fill="black" d="M6.00083 3.55848C4.44587 3.86113 3.2666 4.49773 2.11864 5.63525C0.668031 7.07542 0.0105622 8.67213 0.000126231 10.7489C-0.0103098 12.6796 0.626287 14.2971 1.93079 15.6956C4.17453 18.0958 7.60798 18.722 10.5092 17.261C10.9058 17.0627 11.2501 16.9061 11.2815 16.9061C11.3128 16.9061 11.3128 17.094 11.2919 17.3236L11.2501 17.741H12.9095H14.5688L14.5271 13.5875C14.4853 9.61137 14.4749 9.41309 14.2453 8.71387C13.8174 7.40937 13.3165 6.59536 12.3564 5.62481C11.5945 4.86299 11.3023 4.64383 10.4779 4.24726C8.99597 3.52718 7.38882 3.28715 6.00083 3.55848ZM8.88117 7.20065C9.71605 7.58678 10.4048 8.286 10.8223 9.16262C11.1145 9.77835 11.1562 9.96619 11.1562 10.7593C11.1562 11.5733 11.1249 11.709 10.7701 12.4395C10.3005 13.3788 9.7891 13.8797 8.81855 14.3389C8.21326 14.6207 8.01498 14.6624 7.23228 14.6624C6.41827 14.6624 6.2826 14.6311 5.55208 14.2658C2.223 12.6274 2.75523 7.85812 6.35566 6.92932C7.11748 6.73103 8.09847 6.83539 8.88117 7.20065Z"></path>
<path fill="black" d="M21.6547 3.5578C17.8039 4.30919 15.1635 7.89918 15.6853 11.6561C16.4263 16.9472 22.2496 19.7232 26.758 16.9263C27.6868 16.3523 29.2209 14.7452 29.0226 14.5469C29.0017 14.5156 28.3755 14.119 27.645 13.6703L26.3196 12.8354L26.1005 13.1276C25.6726 13.6703 25.2343 14.0147 24.5664 14.3382C23.9507 14.6304 23.7941 14.6617 22.8966 14.6617C22.0409 14.6617 21.8217 14.62 21.3104 14.3799C20.4755 13.9938 19.7241 13.2633 19.3171 12.4284C19.0144 11.8022 18.9831 11.6561 18.9831 10.7482C18.9831 9.84028 19.0144 9.69417 19.3171 9.06801C19.7241 8.23313 20.4755 7.50261 21.3104 7.11648C21.8217 6.87645 22.0409 6.83471 22.8966 6.83471C23.7837 6.83471 23.9611 6.86602 24.5664 7.15822C24.9421 7.33564 25.4535 7.69046 25.7039 7.95136L26.1631 8.42098L27.4572 7.49218C28.1564 6.98081 28.7408 6.49032 28.7408 6.41727C28.7408 6.34422 28.3547 5.92678 27.8955 5.48846C26.1944 3.89175 23.7733 3.14036 21.6547 3.5578Z"></path>
<path fill="black" d="M64.4426 3.54727C62.8667 3.88122 61.7084 4.49695 60.623 5.58229C60.1638 6.04148 59.6316 6.68851 59.4437 7.01203C58.1184 9.25577 58.1184 12.2405 59.4437 14.4842C59.6316 14.8182 60.1743 15.4652 60.6334 15.9348C61.3327 16.634 61.6562 16.8636 62.4597 17.2602C63.7225 17.8655 64.86 18.1055 66.1541 18.022C67.1768 17.9594 68.4291 17.6046 69.2014 17.1558C69.4414 17.0202 69.6606 16.9054 69.6919 16.9054C69.7232 16.9054 69.7545 17.0932 69.7545 17.3228V17.7402H71.3825H73.0001L72.9688 13.5867C72.9375 10.0176 72.9062 9.36013 72.7496 8.81746C72.0191 6.33369 70.0467 4.37172 67.6047 3.70381C66.8637 3.50553 65.0792 3.4116 64.4426 3.54727ZM67.4273 7.25206C70.7146 8.86964 70.1928 13.6493 66.6237 14.5677C63.472 15.3713 60.7378 11.9796 62.178 9.04705C63.1381 7.07464 65.4549 6.28151 67.4273 7.25206Z"></path>
<path fill="black" d="M32.1014 4.70694L30.5151 5.86534L30.536 11.7721L30.5673 17.6893L32.164 17.7206L33.7503 17.752V10.645C33.7503 6.74196 33.7399 3.54855 33.719 3.54855C33.7086 3.54855 32.978 4.07035 32.1014 4.70694Z"></path>
</svg>
