<svg xmlns:xlink="http://www.w3.org/1999/xlink" class="jsx-3110227327 carousel_image__lDLUS pictoAnimation_pictoAnimation__qN2Wl pictoAnimation_pictoAnimation1__fq1Gk" fill="none" viewBox="0 0 90 90" xmlns="http://www.w3.org/2000/svg" width="94"  height="94" ><path d="M44.261 0C50.1472 0.0299804 56.0333 1.20921 61.4598 3.48772C66.8862 5.75623 71.853 9.10404 76.0003 13.2713C80.1376 17.4386 83.4454 22.4253 85.674 27.8618C87.9025 33.2882 89.0418 39.1544 89.0218 45.0106C88.9918 50.8667 87.8226 56.7229 85.554 62.1194C83.2955 67.5158 79.9677 72.4626 75.8204 76.5799C71.6731 80.6972 66.7164 83.9851 61.3099 86.1936C55.9134 88.4122 50.0772 89.5414 44.2511 89.5314C38.4249 89.5014 32.6087 88.3322 27.2422 86.0837C21.8757 83.8452 16.9589 80.5273 12.8616 76.41C8.77427 72.2827 5.49641 67.3559 3.29785 61.9894C1.10928 56.603 -0.00998816 50.8068 5.29833e-06 45.0106C0.0299857 39.2143 1.18923 33.4281 3.42776 28.1016C5.6563 22.7651 8.95415 17.8783 13.0515 13.801C17.1588 9.73363 22.0556 6.47576 27.3921 4.29719C32.7286 2.09863 38.4948 0.989353 44.261 0.999346V0ZM44.261 0.999346C38.4948 1.02933 32.7486 2.18857 27.4421 4.40712C22.1355 6.62567 17.2787 9.90352 13.2313 13.9809C9.184 18.0582 5.95611 22.935 3.77753 28.2415C1.59896 33.5481 0.489685 39.2843 0.499678 45.0106C0.529659 50.7368 1.67891 56.4531 3.88746 61.7296C6.09602 67.0062 9.35389 71.833 13.4012 75.8604C17.4586 79.8877 22.3054 83.0956 27.582 85.2642C32.8585 87.4328 38.5548 88.5321 44.261 88.5221C49.9573 88.4921 55.6436 87.3529 60.8902 85.1543C66.1367 82.9657 70.9336 79.7178 74.941 75.6905C78.9384 71.6531 82.1363 66.8363 84.2849 61.5897C86.4435 56.3431 87.5327 50.6768 87.5228 45.0106C87.4928 39.3443 86.3535 33.698 84.1649 28.4814C81.9864 23.2648 78.7685 18.4879 74.7611 14.5105C70.7537 10.5331 65.9568 7.35519 60.7403 5.21659C55.5337 3.07799 49.8974 1.9887 44.261 1.99869V0.999346Z" fill="black"></path><path d="M14.5305 45.0108C14.5405 37.2159 17.7884 29.5109 23.3248 24.0745C28.8212 18.5981 36.5261 15.4601 44.2611 15.5301C51.986 15.5501 59.631 18.758 65.0175 24.2544C70.4539 29.7108 73.5619 37.3458 73.4919 45.0108C73.472 52.6758 70.284 60.2408 64.8376 65.5873C59.4311 70.9738 51.8561 74.0518 44.2611 73.9918C36.666 73.9718 29.1609 70.8139 23.8544 65.4174C18.5179 60.0609 15.4599 52.5459 15.5299 45.0108H14.5305ZM15.5299 45.0108C15.5499 52.5459 18.6778 59.981 24.0343 65.2376C29.3508 70.5341 36.796 73.5621 44.2611 73.4922C51.7362 73.4722 59.1014 70.3742 64.308 65.0577C69.5545 59.7911 72.5526 52.4159 72.4926 45.0108C72.4726 37.6056 69.3946 30.3004 64.1381 25.1338C58.9115 19.9272 51.6063 16.9591 44.2611 17.0291C36.9159 17.0491 29.6806 20.0971 24.564 25.3137C19.4073 30.4903 16.4693 37.7355 16.5292 45.0108H15.5299Z" fill="black"></path><path d="M44.2611 57.6721C40.9433 57.6421 37.6754 56.233 35.3969 53.8746C33.0884 51.5261 31.7993 48.2582 31.8492 45.0104C31.8792 41.7525 33.2583 38.5546 35.5768 36.3161C37.8753 34.0575 41.0832 32.7884 44.2711 32.8383C47.459 32.8683 50.597 34.2174 52.7855 36.4859C54.9941 38.7445 56.2433 41.8724 56.1833 45.0004C56.1533 48.1283 54.8242 51.1863 52.6057 53.3349C50.3971 55.5035 47.3291 56.7127 44.2711 56.6628V57.6721H44.2611ZM44.2611 56.6727C47.3191 56.6428 50.3172 55.3436 52.4258 53.165C54.5444 51.0065 55.7336 47.9984 55.6836 45.0004C55.6537 42.0023 54.3845 39.0743 52.2559 37.0156C50.1373 34.947 47.1992 33.7777 44.2711 33.8377C41.343 33.8677 38.4749 35.1069 36.4662 37.1955C34.4375 39.2641 33.3083 42.1422 33.3583 45.0004C33.3882 47.8685 34.6074 50.6667 36.6461 52.6354C38.6748 54.6141 41.4729 55.7234 44.2811 55.6734V56.6727H44.2611Z" fill="black"></path></svg>