<svg xmlns:xlink="http://www.w3.org/1999/xlink" viewBox="0 0 14 14" fill="none" xmlns="http://www.w3.org/2000/svg" preserveAspectRatio="xMidYMid meet" title="linkedin" width="17"  height="17" ><path fill-rule="evenodd" clip-rule="evenodd" d="M.6 1.61A1.081 1.081 0 0 1 1.681.527h10.78a1.081 1.081 0 0 1 1.083 1.081v10.78a1.081 1.081 0 0 1-1.082 1.083H1.682A1.083 1.083 0 0 1 .6 12.39V1.61Zm5.124 3.853h1.752v.88c.253-.506.9-.961 1.873-.961 1.865 0 2.306 1.008 2.306 2.857v3.426H9.77V8.66c0-1.053-.253-1.647-.896-1.647-.891 0-1.262.64-1.262 1.647v3.005H5.724V5.463Zm-3.237 6.12h1.888V5.383H2.487v6.201ZM4.645 3.36a1.214 1.214 0 1 1-2.427.054 1.214 1.214 0 0 1 2.427-.054Z" fill="#FFFFFF"></path></svg>