<svg xmlns:xlink="http://www.w3.org/1999/xlink" title="Wage" viewBox="0 0 68 26" xmlns="http://www.w3.org/2000/svg" width="68"  height="26" ><path d="m.695801.0615234h2.695589l4.14064 17.7575766 4.30737-17.7575766h4.4463l4.3074 17.7575766 4.1407-17.7575766h2.6956l-4.6965 19.4526766h-4.2796l-4.3907-17.81309-4.41856 17.81309h-4.2518z" fill="#FFFFFF"></path><path d="m31.9035 11.6775c.9726 0 1.9175.1389 2.8067.4168l1.195.3335v-1.3617c0-1.9175-1.3339-2.9735-3.307-2.9735-1.8897 0-3.168 1.02822-3.5015 2.7234l-2.1676-.6114c.528-2.52884 2.5845-4.14064 5.6691-4.14064 3.5849 0 5.6135 1.94527 5.6135 5.19664v8.2535h-2.3065v-2.0842c-.667 1.4173-2.4177 2.3621-4.5297 2.3621-1.2228 0-2.251-.3613-3.1125-1.0838-.8336-.7503-1.2505-1.7229-1.2505-2.9457 0-2.6956 2.0286-4.085 4.891-4.085zm4.0017 2.64-1.2228-.3613c-.917-.2779-1.7507-.4168-2.4455-.4168-1.6951 0-2.7511.7225-2.7511 2.0842 0 1.2227.9448 2.0564 2.6956 2.0564 2.1953 0 3.7238-1.1672 3.7238-3.0846z" fill="#FFFFFF"></path><path d="m42.7692 20.32c.528 1.9175 1.8341 2.8623 3.8905 2.8623 2.5566 0 3.8628-1.6951 3.8628-4.6686v-1.4729c-.7782 1.4729-2.39 2.4733-4.5853 2.4733-3.3348 0-6.0859-2.5844-6.0859-6.5305 0-4.11289 2.7511-6.91964 6.2248-6.91964 2.0009 0 3.4737.75032 4.4464 2.25096v-1.97307h2.4176v12.00505c0 2.0843-.5558 3.7516-1.6395 5.03-1.0838 1.2783-2.6401 1.9174-4.6409 1.9174-3.1958 0-5.1966-1.3616-6.0581-4.0572zm3.696-12.14403c-2.4455 0-4.224 1.83413-4.224 4.83543 0 2.6955 1.7785 4.3907 4.224 4.3907 2.3899 0 4.1684-1.8897 4.1684-4.5853 0-2.6678-1.7785-4.64083-4.1684-4.64083z" fill="#FFFFFF"></path><path d="m67.1129 15.5402c-.8893 2.6678-2.8624 4.2518-5.8914 4.2518-3.8628 0-6.6417-2.6956-6.6417-6.9474 0-3.77936 2.5288-6.78064 6.2804-6.78064 1.7508 0 3.168.50021 4.2518 1.52843 1.0838 1.00042 1.6118 2.36211 1.6118 4.08511 0 .5835-.0556 1.1115-.1667 1.6117h-9.5318c.0277 2.8624 1.8619 4.3908 4.1962 4.3908 2.0286 0 3.2791-1.056 3.8071-2.9457zm-2.779-3.9739.0278-.3891c0-1.88965-1.5284-3.00123-3.5293-3.00123-2.0286 0-3.557 1.30611-3.8071 3.39033z" fill="#FFFFFF"></path></svg>