<svg xmlns:xlink="http://www.w3.org/1999/xlink" class="jsx-3110227327 carousel_image__lDLUS pictoAnimation_pictoAnimation__qN2Wl pictoAnimation_pictoAnimation5__qITuB" fill="none" viewBox="0 0 92 92" xmlns="http://www.w3.org/2000/svg" width="94"  height="94" ><path d="M45.865 90.73C70.6433 90.73 90.73 70.6433 90.73 45.865C90.73 21.0867 70.6433 1 45.865 1C21.0867 1 1 21.0867 1 45.865C1 70.6433 21.0867 90.73 45.865 90.73Z" stroke="#232323" fill="none"></path><path d="M45.865 90.73C70.6433 90.73 90.73 70.6433 90.73 45.865C90.73 21.0867 70.6433 1 45.865 1C21.0867 1 1 21.0867 1 45.865C1 70.6433 21.0867 90.73 45.865 90.73Z" stroke="#232323" fill="none"></path><path d="M77.363 14.364L14.364 77.3545" stroke="#232323" fill="none"></path><path d="M21.9949 45.8633L69.7236 45.8633" stroke="#232323" fill="none"></path><path d="M77.363 77.3545L14.364 14.364" stroke="#232323" fill="none"></path><path d="M45.865 69.7293V22.0006" stroke="#232323" fill="none"></path></svg>