<svg xmlns:xlink="http://www.w3.org/1999/xlink" class="jsx-3110227327 carousel_image__lDLUS pictoAnimation_pictoAnimation__qN2Wl pictoAnimation_pictoAnimation3__zf3KV" fill="none" viewBox="0 0 90 90" xmlns="http://www.w3.org/2000/svg" width="94"  height="94" ><circle cx="45" cy="45" r="44.5" stroke="#232323" fill="none"></circle><circle cx="45" cy="45" r="42.5" stroke="#232323" fill="none"></circle><circle cx="45" cy="45" r="40.5" stroke="#232323" fill="none"></circle><circle cx="45" cy="45" r="38.5" stroke="#232323" fill="none"></circle><circle cx="45" cy="45" r="36.5" stroke="#232323" fill="none"></circle><circle cx="45" cy="45" r="34.5" stroke="#232323" fill="none"></circle><circle cx="45" cy="45" r="32.5" stroke="#232323" fill="none"></circle><circle cx="45" cy="45" r="30.5" stroke="#232323" fill="none"></circle><circle cx="45" cy="45" r="28.5" stroke="#232323" fill="none"></circle><circle cx="45" cy="45" r="26.5" stroke="#232323" fill="none"></circle><circle cx="45" cy="45" r="24.5" stroke="#232323" fill="none"></circle><circle cx="45" cy="45" r="22.5" stroke="#232323" fill="none"></circle><circle cx="45" cy="45" r="20.5" stroke="#232323" fill="none"></circle><circle cx="45" cy="45" r="18.5" stroke="#232323" fill="none"></circle><circle cx="45" cy="45" r="16.5" stroke="#232323" fill="none"></circle><circle cx="45" cy="45" r="14.5" stroke="#232323" fill="none"></circle><circle cx="45" cy="45" r="12.5" stroke="#232323" fill="none"></circle><circle cx="45" cy="45" r="10.5" stroke="#232323" fill="none"></circle><circle cx="45" cy="45" r="8.5" stroke="#232323" fill="none"></circle><circle cx="45" cy="45" r="6.5" stroke="#232323" fill="none"></circle><circle cx="45" cy="45" r="4.5" stroke="#232323" fill="none"></circle><circle cx="45" cy="45" r="2.5" stroke="#232323" fill="none"></circle><circle cx="45" cy="45" r="0.5" stroke="#232323" fill="none"></circle></svg>