<svg xmlns="http://www.w3.org/2000/svg" fill="none" viewBox="0 0 71 21" height="21" width="71">
<path fill="white" d="M1.88719 0.0144495C0.970913 0.12723 0.241773 0.796868 0.0440405 1.7044C-0.00362719 1.92468 -0.00715813 2.33351 0.0387441 2.54145C0.130549 2.96438 0.317689 3.32034 0.603695 3.61287C1.26398 4.29484 2.28972 4.45696 3.13361 4.01465C3.6403 3.7468 4.02871 3.27276 4.1876 2.72296C4.35179 2.15376 4.26175 1.50704 3.9475 1.00481C3.83274 0.821538 3.58204 0.551922 3.40373 0.417994C2.98355 0.107846 2.39565 -0.0489899 1.88719 0.0144495Z"></path>
<path fill="white" d="M7.2225 0.0118786C6.71934 0.0753179 6.25326 0.309691 5.91429 0.670943C5.11983 1.52032 5.14278 2.82788 5.96549 3.64378C6.37154 4.04556 6.89059 4.25879 7.46437 4.25879C8.68784 4.25879 9.64649 3.25962 9.59529 2.04017C9.57234 1.50446 9.3799 1.05334 9.01092 0.665656C8.61369 0.251538 8.11936 0.0295006 7.53852 0.00482976C7.43436 -0.000456852 7.29312 0.00306755 7.2225 0.0118786Z"></path>
<path fill="white" d="M12.6284 0.00580149C12.3812 0.0392834 12.2859 0.0604298 12.1252 0.111534C11.7986 0.219028 11.5038 0.40406 11.2619 0.656055C11.0289 0.899239 10.8823 1.14066 10.7729 1.46667C10.3809 2.63677 11.0677 3.88441 12.2788 4.19985C12.5136 4.26152 12.9055 4.27738 13.1492 4.23509C14.0213 4.08354 14.701 3.43153 14.8899 2.56628C14.9341 2.36539 14.9411 2.01119 14.9076 1.80149C14.8299 1.33803 14.6163 0.929196 14.2791 0.604951C13.8854 0.226077 13.4211 0.0287101 12.8702 0.00580149C12.7661 0.00227708 12.6584 0.00227708 12.6284 0.00580149Z"></path>
<path fill="white" d="M23.4718 0.287118C23.4648 0.294167 23.4595 3.54191 23.4595 7.5051V14.709H24.6776H25.8958V12.0921V9.47524H27.5871C29.4109 9.47524 29.5309 9.46996 29.9776 9.38008C30.8162 9.20915 31.5312 8.85495 32.1491 8.29985C32.91 7.62141 33.4167 6.65924 33.5774 5.59311C33.6233 5.29354 33.6392 4.75783 33.6127 4.4794C33.5333 3.65821 33.2879 2.94628 32.8571 2.29779C32.6947 2.05285 32.5569 1.88367 32.3239 1.64401C31.6265 0.932085 30.7668 0.49682 29.7163 0.325887L29.4709 0.287118L26.4767 0.281832C24.8312 0.278307 23.4789 0.28007 23.4718 0.287118ZM29.4179 2.63613C30.08 2.77535 30.622 3.20709 30.938 3.84501C31.1093 4.18687 31.1799 4.49526 31.1799 4.8847C31.1799 5.50852 30.9486 6.083 30.5231 6.51474C30.2106 6.83194 29.877 7.01697 29.4356 7.11918C29.282 7.15442 29.2255 7.15618 27.5871 7.16147L25.8958 7.16852V4.88647V2.60265H27.5783C29.1566 2.60265 29.2679 2.60441 29.4179 2.63613Z"></path>
<path fill="white" d="M39.234 4.43535C38.7132 4.49526 38.1747 4.69439 37.7775 4.97634C37.4879 5.18252 37.1066 5.58783 36.9 5.90855C36.8842 5.93498 36.8789 5.80105 36.8789 5.28473L36.8771 4.62919H35.7207H34.5643V9.66909V14.709H35.7207H36.8771V11.8983C36.8771 10.0444 36.8842 9.02764 36.8965 8.91486C36.9495 8.41968 37.1084 7.97209 37.3661 7.5844C37.4827 7.40994 37.7651 7.1227 37.9487 6.9923C38.2277 6.79317 38.5755 6.64338 38.9339 6.56761C39.1581 6.52003 39.6383 6.50065 39.889 6.5306C40.0567 6.54999 40.461 6.62576 40.521 6.64867C40.5475 6.65924 40.5493 6.57466 40.5493 5.60192V4.5446L40.3515 4.5076C40.2421 4.48821 40.1008 4.46354 40.0373 4.45297C39.8784 4.42653 39.4035 4.41596 39.234 4.43535Z"></path>
<path fill="white" d="M45.3425 4.42888C43.6442 4.56281 42.2318 5.37166 41.3402 6.72679C40.9006 7.39291 40.6146 8.19119 40.5105 9.04409C40.4769 9.33133 40.4822 10.112 40.521 10.3904C40.6623 11.4019 41.0277 12.2777 41.6103 12.9985C42.4613 14.0558 43.63 14.6955 45.0424 14.8788C45.3231 14.9158 46.0328 14.921 46.2959 14.8893C47.311 14.7624 48.1673 14.4294 48.9088 13.8725C49.9981 13.0531 50.6796 11.8865 50.8985 10.4715C50.9497 10.1384 50.962 9.47055 50.9232 9.10577C50.789 7.84403 50.2558 6.72679 49.3837 5.87917C48.5734 5.09499 47.5617 4.61567 46.3842 4.46236C46.1811 4.43416 45.5279 4.41478 45.3425 4.42888ZM46.1458 6.66512C47.4876 6.85543 48.4939 7.91981 48.6546 9.31724C48.6793 9.5428 48.6669 10.0256 48.6281 10.2318C48.4321 11.2856 47.7842 12.0998 46.8273 12.4892C46.446 12.6443 46.0417 12.7112 45.5809 12.6954C44.8164 12.6672 44.1738 12.3905 43.6371 11.8566C43.0933 11.3121 42.7967 10.623 42.7614 9.81065C42.7208 8.88726 43.0598 8.02201 43.7024 7.41758C44.1491 6.99465 44.7158 6.73208 45.3602 6.65102C45.5014 6.6334 45.9781 6.64221 46.1458 6.66512Z"></path>
<path fill="white" d="M65.7249 4.43064C65.3683 4.46412 65.2394 4.47998 65.0187 4.52404C64.2013 4.68616 63.4722 5.01922 62.8119 5.5285C62.6106 5.68533 62.1587 6.13293 61.9927 6.33911C61.08 7.48278 60.6951 8.97537 60.9246 10.4732C61.1524 11.9694 61.9698 13.2593 63.2003 14.0664C63.8782 14.5105 64.6321 14.7783 65.5219 14.8893C65.785 14.921 66.4929 14.9158 66.8019 14.8788C68.7315 14.6497 70.1933 13.5747 70.7212 11.9976C70.8059 11.7473 70.8854 11.4125 70.866 11.3931C70.8571 11.3843 70.3363 11.3808 69.7078 11.3825L68.5638 11.3878L68.532 11.4847C68.4826 11.6363 68.4473 11.7121 68.3484 11.8636C68.1171 12.2196 67.7252 12.4945 67.2079 12.6672C66.9184 12.7641 66.6447 12.8082 66.2705 12.8187C65.5131 12.8416 64.9058 12.6883 64.3726 12.3377C64.159 12.1984 63.8253 11.8636 63.6788 11.6433C63.5393 11.4336 63.398 11.1429 63.3186 10.9032C63.2586 10.727 63.165 10.3252 63.165 10.2512C63.165 10.216 63.188 10.216 67.0561 10.216H70.9454L70.9666 10.0609C71.0002 9.81065 71.0107 9.3331 70.9878 9.03528C70.8889 7.75592 70.3787 6.63692 69.5101 5.79106C69.2576 5.54612 69.0864 5.40867 68.8057 5.2254C68.0024 4.6985 67.0067 4.41126 66.0251 4.42183C65.8944 4.42359 65.7585 4.42712 65.7249 4.43064ZM66.2387 6.34087C66.4823 6.36554 66.65 6.39902 66.8672 6.47127C67.6952 6.74618 68.2902 7.40701 68.4614 8.24053C68.4808 8.33745 68.4967 8.4238 68.4967 8.43437C68.4967 8.44847 67.7588 8.45376 65.875 8.45376C63.7229 8.45376 63.2533 8.45023 63.2533 8.43085C63.2533 8.39208 63.3504 8.11894 63.4192 7.96034C63.9153 6.83605 64.9976 6.21399 66.2387 6.34087Z"></path>
<path fill="white" d="M50.6867 4.64505C50.6902 4.65562 51.6418 6.92357 52.8017 9.68494L54.9114 14.709L55.9071 14.7055L56.9029 14.7002L59.0161 9.66908L61.1294 4.638L59.8741 4.63271C59.1856 4.63095 58.6154 4.63447 58.6083 4.64152C58.6012 4.65033 57.9939 6.21341 57.2595 8.11835C56.5251 10.0233 55.9177 11.5864 55.9107 11.5952C55.9036 11.6022 55.2875 10.0374 54.5407 8.11835L53.183 4.62919H51.9313C51.1598 4.62919 50.6831 4.63623 50.6867 4.64505Z"></path>
<path fill="white" d="M1.93846 5.3271C1.64009 5.36586 1.36644 5.44693 1.144 5.56676C0.12885 6.10775 -0.282504 7.33425 0.208296 8.35985C0.570218 9.1176 1.30289 9.58105 2.14149 9.58105C3.57681 9.58105 4.60255 8.18187 4.17001 6.81087C4.10292 6.59941 4.03584 6.46019 3.90872 6.26987C3.59447 5.80113 3.10896 5.47864 2.54048 5.36058C2.40807 5.33238 2.04968 5.313 1.93846 5.3271Z"></path>
<path fill="white" d="M7.20832 5.33623C6.70516 5.40319 6.26733 5.62523 5.92306 5.98472C5.13213 6.81119 5.13743 8.11346 5.93542 8.93465C6.66279 9.68711 7.84036 9.79637 8.69485 9.19545C9.50167 8.62802 9.81239 7.58304 9.45047 6.66317C9.3516 6.4147 9.21213 6.19971 9.01087 5.98824C8.69661 5.66047 8.32233 5.4543 7.87214 5.3609C7.70618 5.32742 7.36898 5.31332 7.20832 5.33623Z"></path>
<path fill="white" d="M12.6018 5.3271C12.0598 5.39582 11.6556 5.5879 11.2936 5.94915C10.8717 6.37208 10.6687 6.86198 10.6704 7.4576C10.6704 7.9193 10.7728 8.25764 11.0253 8.63475C11.4243 9.2339 12.0775 9.58105 12.8066 9.58105C13.7865 9.58105 14.6339 8.91318 14.8722 7.95278C14.9323 7.71136 14.9464 7.36597 14.9076 7.12807C14.8334 6.68047 14.6498 6.31041 14.3426 5.98792C13.9418 5.57028 13.4387 5.34648 12.8578 5.3271C12.7519 5.32181 12.6354 5.32357 12.6018 5.3271Z"></path>
<path fill="white" d="M1.92076 10.6511C1.69302 10.6758 1.37523 10.7692 1.17044 10.8732C0.785564 11.0652 0.418346 11.4353 0.220613 11.8283C0.197662 11.8759 0.153525 11.9833 0.123512 12.0662C-0.0706897 12.6177 -0.0353802 13.1869 0.225909 13.7138C0.344196 13.9553 0.460717 14.1156 0.649623 14.3006C1.03803 14.6813 1.58179 14.9033 2.13085 14.9033C3.57677 14.9033 4.60428 13.5094 4.16997 12.1331C4.03756 11.712 3.77098 11.3366 3.41258 11.0652C3.24486 10.9384 2.90413 10.7727 2.69757 10.7198C2.43275 10.6494 2.15733 10.6264 1.92076 10.6511Z"></path>
<path fill="white" d="M7.25247 10.6511C7.02473 10.6758 6.70694 10.7692 6.50215 10.8732C6.12257 11.0635 5.75359 11.4318 5.56292 11.8107C5.40932 12.1138 5.33871 12.4151 5.33871 12.7711C5.33694 13.046 5.36342 13.2134 5.44463 13.4583C5.73064 14.313 6.55511 14.9033 7.46256 14.9033C8.03987 14.9033 8.56598 14.6848 8.9738 14.2777C9.21567 14.0381 9.38516 13.7649 9.49109 13.4495C9.74531 12.6865 9.54582 11.8353 8.98087 11.2767C8.77431 11.0758 8.65425 10.9877 8.40885 10.8679C8.0434 10.6864 7.63381 10.6106 7.25247 10.6511Z"></path>
<path fill="white" d="M12.5843 10.6492C11.6256 10.7708 10.9 11.4317 10.7005 12.3656C10.6581 12.57 10.6581 12.9859 10.7023 13.1903C10.7658 13.4846 10.8594 13.7084 11.0218 13.9534C11.8922 15.2574 13.8219 15.2081 14.6322 13.8635C14.9376 13.356 15.0136 12.704 14.8335 12.133C14.6022 11.3999 13.9843 10.8466 13.211 10.6827C13.0857 10.6563 12.6973 10.6352 12.5843 10.6492Z"></path>
<path fill="white" d="M1.92984 15.9709C1.71975 16.0008 1.62618 16.022 1.46729 16.0748C1.12655 16.1876 0.888214 16.3357 0.630456 16.5929C0.317967 16.9048 0.134358 17.2467 0.0390227 17.6873C-0.00334865 17.8899 -0.00511412 18.2917 0.0372572 18.4926C0.104345 18.808 0.249114 19.1358 0.418599 19.3631C0.549244 19.5341 0.83525 19.7966 1.0065 19.9041C1.5432 20.2354 2.21585 20.3147 2.81258 20.1156C3.44815 19.9024 3.9566 19.3931 4.16493 18.7587C4.60806 17.4053 3.62116 16.0079 2.19466 15.9691C2.07814 15.9656 1.95986 15.9674 1.92984 15.9709Z"></path>
</svg>
