<svg xmlns:xlink="http://www.w3.org/1999/xlink" viewBox="0 0 14 11" fill="none" xmlns="http://www.w3.org/2000/svg" preserveAspectRatio="xMidYMid meet" title="twitter" width="17"  height="17" ><path d="M14 1.305c-.515.22-1.068.37-1.65.437A2.802 2.802 0 0 0 13.614.205 5.856 5.856 0 0 1 11.79.88a2.905 2.905 0 0 0-1.63-.842 2.96 2.96 0 0 0-1.824.292 2.818 2.818 0 0 0-1.262 1.305 2.692 2.692 0 0 0-.179 1.777 8.38 8.38 0 0 1-3.28-.842A8.111 8.111 0 0 1 .976.51a2.704 2.704 0 0 0-.05 2.706c.223.404.546.747.939 1.001A2.941 2.941 0 0 1 .563 3.87v.035c0 .642.23 1.263.65 1.759.42.496 1.004.837 1.654.964a2.99 2.99 0 0 1-1.297.047c.183.552.54 1.034 1.022 1.38a2.94 2.94 0 0 0 1.661.548A5.892 5.892 0 0 1 .686 9.79c-.23 0-.458-.012-.686-.038A8.33 8.33 0 0 0 4.402 11c5.284 0 8.173-4.23 8.173-7.898 0-.12-.003-.24-.008-.36a5.736 5.736 0 0 0 1.432-1.435L14 1.305Z" fill="#FFFFFF"></path></svg>