<svg xmlns="http://www.w3.org/2000/svg" width="18" height="12" viewBox="0 0 18 12">
    <g fill="none" fill-rule="evenodd">
        <g fill="#FFF" fill-rule="nonzero">
            <g>
                <path d="M992.01 23.6h-5.25V22h5.25v1.6zm1.294 8c-.332 1.038-1.522 2.4-3.826 2.4-2.305 0-4.173-1.383-4.173-4.54 0-3.128 1.744-4.736 4.1-4.736 2.311 0 3.723 1.426 4.03 3.54.06.406.083.951.072 1.713h-6.02c.097 2.569 2.612 2.65 3.44 1.623h2.377zm-5.765-3.2h3.724c-.079-1.238-.852-1.775-1.858-1.775-1.099 0-1.707.614-1.866 1.775zm-7.18 5.59h-4.85V22.017h5.215c4.107.065 4.185 4.355 2.04 5.525 2.596 1.008 2.683 6.448-2.405 6.448zm-2.6-7.19h2.689c1.88 0 2.179-2.4-.234-2.4h-2.454v2.4zm2.544 2.4h-2.543v2.413h2.505c2.292 0 2.151-2.413.038-2.413z" transform="translate(-1351 -102) translate(375.49 80)"/>
            </g>
        </g>
    </g>
</svg>
