<svg xmlns="http://www.w3.org/2000/svg" width="19" height="18" viewBox="0 0 19 18">
    <g fill="none" fill-rule="evenodd">
        <g fill="#FFF" fill-rule="nonzero">
            <g>
                <path d="M920.02 19c-4.972 0-9 4.03-9 9s4.028 9 9 9c4.97 0 9-4.03 9-9s-4.03-9-9-9zm7.413 8.58c-1.931-.316-3.707-.333-5.327-.054-.183-.422-.373-.844-.576-1.26 1.733-.75 3.124-1.768 4.161-3.061 1.013 1.195 1.648 2.714 1.742 4.376zm-2.882-5.46c-.903 1.165-2.15 2.086-3.739 2.76-.762-1.396-1.634-2.758-2.616-4.08.584-.147 1.193-.235 1.823-.235 1.706 0 3.276.584 4.532 1.554zm-7.887-.745c.999 1.306 1.884 2.653 2.653 4.035-1.822.537-3.998.812-6.513.829.52-2.126 1.951-3.895 3.86-4.864zM912.584 28l.01-.192c2.887-.004 5.377-.336 7.463-.991.174.356.342.713.502 1.073-2.535.793-4.624 2.417-6.253 4.86-1.074-1.289-1.722-2.945-1.722-4.75zm2.872 5.858c1.477-2.316 3.362-3.824 5.699-4.52.696 1.814 1.206 3.682 1.532 5.594-2.512.968-5.215.5-7.23-1.075zm8.69.322c-.329-1.765-.81-3.49-1.44-5.173 1.407-.199 2.955-.147 4.649.147-.328 2.09-1.521 3.894-3.21 5.026z" transform="translate(-1286 -99) translate(375.49 80)"/>
            </g>
        </g>
    </g>
</svg>
